<?xml version="1.0" encoding="utf-8"?>
<!-- Generator: Adobe Illustrator 16.0.0, SVG Export Plug-In . SVG Version: 6.00 Build 0)  -->
<!DOCTYPE svg PUBLIC "-//W3C//DTD SVG 1.1//EN" "http://www.w3.org/Graphics/SVG/1.1/DTD/svg11.dtd">
<svg version="1.1" id="Layer_1" xmlns="http://www.w3.org/2000/svg" xmlns:xlink="http://www.w3.org/1999/xlink" x="0px" y="0px"
	 width="1394.65px" height="425.2px" viewBox="0 0 1394.65 425.2" enable-background="new 0 0 1394.65 425.2" xml:space="preserve">
<rect x="20.48" y="49.184" fill="none" stroke="#000000" stroke-miterlimit="10" width="39.685" height="39.686"/>
<rect x="74.48" y="49.184" fill="none" stroke="#000000" stroke-miterlimit="10" width="39.685" height="39.686"/>
<rect x="20.48" y="154.35" fill="none" stroke="#000000" stroke-miterlimit="10" width="39.685" height="39.686"/>
<rect x="74.48" y="154.35" fill="none" stroke="#000000" stroke-miterlimit="10" width="39.685" height="39.686"/>
<rect x="20.48" y="208.349" fill="none" stroke="#000000" stroke-miterlimit="10" width="39.685" height="39.686"/>
<rect x="74.48" y="208.349" fill="none" stroke="#000000" stroke-miterlimit="10" width="39.685" height="39.686"/>
<rect x="20.48" y="262.35" fill="none" stroke="#000000" stroke-miterlimit="10" width="39.685" height="39.686"/>
<rect x="74.48" y="262.35" fill="none" stroke="#000000" stroke-miterlimit="10" width="39.685" height="39.686"/>
<rect x="20.48" y="316.35" fill="none" stroke="#000000" stroke-miterlimit="10" width="39.685" height="39.686"/>
<rect x="74.48" y="316.35" fill="none" stroke="#000000" stroke-miterlimit="10" width="39.685" height="39.686"/>
<rect x="20.48" y="370.348" fill="none" stroke="#000000" stroke-miterlimit="10" width="39.685" height="39.686"/>
<rect x="74.48" y="370.348" fill="none" stroke="#000000" stroke-miterlimit="10" width="39.685" height="39.686"/>
<rect x="152.481" y="49.184" fill="none" stroke="#000000" stroke-miterlimit="10" width="39.685" height="39.686"/>
<rect x="260.482" y="49.184" fill="none" stroke="#000000" stroke-miterlimit="10" width="39.685" height="39.686"/>
<rect x="314.482" y="49.184" fill="none" stroke="#000000" stroke-miterlimit="10" width="39.685" height="39.686"/>
<rect x="368.637" y="49.184" fill="none" stroke="#000000" stroke-miterlimit="10" width="39.685" height="39.686"/>
<rect x="422.637" y="49.184" fill="none" stroke="#000000" stroke-miterlimit="10" width="39.685" height="39.686"/>
<rect x="503.403" y="49.184" fill="none" stroke="#000000" stroke-miterlimit="10" width="39.685" height="39.686"/>
<rect x="557.403" y="49.184" fill="none" stroke="#000000" stroke-miterlimit="10" width="39.685" height="39.686"/>
<rect x="611.558" y="49.184" fill="none" stroke="#000000" stroke-miterlimit="10" width="39.685" height="39.686"/>
<rect x="665.558" y="49.184" fill="none" stroke="#000000" stroke-miterlimit="10" width="39.685" height="39.686"/>
<rect x="746.403" y="49.181" fill="none" stroke="#000000" stroke-miterlimit="10" width="39.685" height="39.686"/>
<rect x="800.403" y="49.181" fill="none" stroke="#000000" stroke-miterlimit="10" width="39.685" height="39.686"/>
<rect x="854.558" y="49.181" fill="none" stroke="#000000" stroke-miterlimit="10" width="39.686" height="39.686"/>
<rect x="908.558" y="49.181" fill="none" stroke="#000000" stroke-miterlimit="10" width="39.686" height="39.686"/>
<rect x="986.404" y="49.181" fill="none" stroke="#000000" stroke-miterlimit="10" width="39.685" height="39.686"/>
<rect x="1040.404" y="49.181" fill="none" stroke="#000000" stroke-miterlimit="10" width="39.685" height="39.686"/>
<rect x="1094.559" y="49.181" fill="none" stroke="#000000" stroke-miterlimit="10" width="39.686" height="39.686"/>
<rect x="1172.404" y="49.189" fill="none" stroke="#000000" stroke-miterlimit="10" width="39.685" height="39.686"/>
<rect x="1226.404" y="49.189" fill="none" stroke="#000000" stroke-miterlimit="10" width="39.685" height="39.686"/>
<rect x="1280.559" y="49.189" fill="none" stroke="#000000" stroke-miterlimit="10" width="39.686" height="39.686"/>
<rect x="1334.559" y="49.189" fill="none" stroke="#000000" stroke-miterlimit="10" width="39.686" height="39.686"/>
<rect x="1172.398" y="154.358" fill="none" stroke="#000000" stroke-miterlimit="10" width="39.685" height="39.686"/>
<rect x="1226.398" y="154.358" fill="none" stroke="#000000" stroke-miterlimit="10" width="39.685" height="39.686"/>
<rect x="1280.553" y="154.358" fill="none" stroke="#000000" stroke-miterlimit="10" width="39.686" height="39.686"/>
<rect x="1334.553" y="154.358" fill="none" stroke="#000000" stroke-miterlimit="10" width="39.686" height="39.686"/>
<rect x="1172.404" y="208.35" fill="none" stroke="#000000" stroke-miterlimit="10" width="39.685" height="39.685"/>
<rect x="1226.404" y="208.35" fill="none" stroke="#000000" stroke-miterlimit="10" width="39.685" height="39.685"/>
<rect x="1280.559" y="208.35" fill="none" stroke="#000000" stroke-miterlimit="10" width="39.686" height="39.685"/>
<rect x="1334.559" y="208.35" fill="none" stroke="#000000" stroke-miterlimit="10" width="39.686" height="39.685"/>
<rect x="1172.398" y="262.354" fill="none" stroke="#000000" stroke-miterlimit="10" width="39.685" height="39.686"/>
<rect x="1226.398" y="262.354" fill="none" stroke="#000000" stroke-miterlimit="10" width="39.685" height="39.686"/>
<rect x="1280.553" y="262.354" fill="none" stroke="#000000" stroke-miterlimit="10" width="39.686" height="39.686"/>
<rect x="1334.553" y="262.354" fill="none" stroke="#000000" stroke-miterlimit="10" width="39.686" height="39.686"/>
<rect x="1172.398" y="317.027" fill="none" stroke="#000000" stroke-miterlimit="10" width="39.685" height="39.686"/>
<rect x="1226.398" y="317.027" fill="none" stroke="#000000" stroke-miterlimit="10" width="39.685" height="39.686"/>
<rect x="1280.553" y="317.027" fill="none" stroke="#000000" stroke-miterlimit="10" width="39.686" height="39.686"/>
<rect x="1172.32" y="370.348" fill="none" stroke="#000000" stroke-miterlimit="10" width="39.685" height="39.686"/>
<rect x="1226.32" y="370.348" fill="none" stroke="#000000" stroke-miterlimit="10" width="39.685" height="39.686"/>
<rect x="1280.475" y="370.348" fill="none" stroke="#000000" stroke-miterlimit="10" width="39.686" height="39.686"/>
<rect x="986.404" y="154.35" fill="none" stroke="#000000" stroke-miterlimit="10" width="39.685" height="39.686"/>
<rect x="1040.404" y="154.35" fill="none" stroke="#000000" stroke-miterlimit="10" width="39.685" height="39.686"/>
<rect x="1094.559" y="154.35" fill="none" stroke="#000000" stroke-miterlimit="10" width="39.686" height="39.686"/>
<rect x="986.404" y="208.35" fill="none" stroke="#000000" stroke-miterlimit="10" width="39.685" height="39.685"/>
<rect x="1040.404" y="208.35" fill="none" stroke="#000000" stroke-miterlimit="10" width="39.685" height="39.685"/>
<rect x="1094.559" y="208.35" fill="none" stroke="#000000" stroke-miterlimit="10" width="39.686" height="39.685"/>
<rect x="1040.404" y="317.027" fill="none" stroke="#000000" stroke-miterlimit="10" width="39.685" height="39.686"/>
<rect x="986.404" y="370.357" fill="none" stroke="#000000" stroke-miterlimit="10" width="39.685" height="39.686"/>
<rect x="1040.404" y="370.357" fill="none" stroke="#000000" stroke-miterlimit="10" width="39.685" height="39.686"/>
<rect x="1094.559" y="370.357" fill="none" stroke="#000000" stroke-miterlimit="10" width="39.686" height="39.686"/>
<rect x="152.481" y="154.35" fill="none" stroke="#000000" stroke-miterlimit="10" width="39.685" height="39.686"/>
<rect x="206.405" y="154.35" fill="none" stroke="#000000" stroke-miterlimit="10" width="39.685" height="39.686"/>
<rect x="260.405" y="154.35" fill="none" stroke="#000000" stroke-miterlimit="10" width="39.685" height="39.686"/>
<rect x="314.56" y="154.35" fill="none" stroke="#000000" stroke-miterlimit="10" width="39.685" height="39.686"/>
<rect x="368.56" y="154.35" fill="none" stroke="#000000" stroke-miterlimit="10" width="39.685" height="39.686"/>
<rect x="422.441" y="154.351" fill="none" stroke="#000000" stroke-miterlimit="10" width="39.685" height="39.686"/>
<rect x="476.365" y="154.351" fill="none" stroke="#000000" stroke-miterlimit="10" width="39.685" height="39.686"/>
<rect x="530.365" y="154.351" fill="none" stroke="#000000" stroke-miterlimit="10" width="39.685" height="39.686"/>
<rect x="584.52" y="154.351" fill="none" stroke="#000000" stroke-miterlimit="10" width="39.685" height="39.686"/>
<rect x="638.52" y="154.351" fill="none" stroke="#000000" stroke-miterlimit="10" width="39.685" height="39.686"/>
<rect x="692.363" y="154.351" fill="none" stroke="#000000" stroke-miterlimit="10" width="39.685" height="39.686"/>
<rect x="746.287" y="154.351" fill="none" stroke="#000000" stroke-miterlimit="10" width="39.685" height="39.686"/>
<rect x="800.287" y="154.351" fill="none" stroke="#000000" stroke-miterlimit="10" width="39.685" height="39.686"/>
<rect x="854.441" y="154.351" fill="none" stroke="#000000" stroke-miterlimit="10" width="39.686" height="39.686"/>
<rect x="908.441" y="154.351" fill="none" stroke="#000000" stroke-miterlimit="10" width="39.686" height="39.686"/>
<rect x="165.982" y="208.35" fill="none" stroke="#000000" stroke-miterlimit="10" width="39.685" height="39.685"/>
<rect x="233.542" y="208.349" fill="none" stroke="#000000" stroke-miterlimit="10" width="39.685" height="39.686"/>
<rect x="287.542" y="208.349" fill="none" stroke="#000000" stroke-miterlimit="10" width="39.685" height="39.686"/>
<rect x="341.697" y="208.349" fill="none" stroke="#000000" stroke-miterlimit="10" width="39.685" height="39.686"/>
<rect x="395.697" y="208.349" fill="none" stroke="#000000" stroke-miterlimit="10" width="39.685" height="39.686"/>
<rect x="449.578" y="208.35" fill="none" stroke="#000000" stroke-miterlimit="10" width="39.685" height="39.685"/>
<rect x="503.501" y="208.35" fill="none" stroke="#000000" stroke-miterlimit="10" width="39.685" height="39.685"/>
<rect x="557.501" y="208.35" fill="none" stroke="#000000" stroke-miterlimit="10" width="39.685" height="39.685"/>
<rect x="611.657" y="208.35" fill="none" stroke="#000000" stroke-miterlimit="10" width="39.685" height="39.685"/>
<rect x="665.656" y="208.35" fill="none" stroke="#000000" stroke-miterlimit="10" width="39.686" height="39.685"/>
<rect x="719.5" y="208.35" fill="none" stroke="#000000" stroke-miterlimit="10" width="39.685" height="39.685"/>
<rect x="773.424" y="208.35" fill="none" stroke="#000000" stroke-miterlimit="10" width="39.685" height="39.685"/>
<rect x="827.424" y="208.35" fill="none" stroke="#000000" stroke-miterlimit="10" width="39.685" height="39.685"/>
<rect x="894.98" y="208.355" fill="none" stroke="#000000" stroke-miterlimit="10" width="39.686" height="39.686"/>
<rect x="172.731" y="262.35" fill="none" stroke="#000000" stroke-miterlimit="10" width="39.686" height="39.686"/>
<rect x="247.041" y="262.348" fill="none" stroke="#000000" stroke-miterlimit="10" width="39.685" height="39.686"/>
<rect x="301.041" y="262.348" fill="none" stroke="#000000" stroke-miterlimit="10" width="39.685" height="39.686"/>
<rect x="355.196" y="262.348" fill="none" stroke="#000000" stroke-miterlimit="10" width="39.685" height="39.686"/>
<rect x="409.196" y="262.348" fill="none" stroke="#000000" stroke-miterlimit="10" width="39.685" height="39.686"/>
<rect x="463.077" y="262.35" fill="none" stroke="#000000" stroke-miterlimit="10" width="39.685" height="39.686"/>
<rect x="517" y="262.35" fill="none" stroke="#000000" stroke-miterlimit="10" width="39.685" height="39.686"/>
<rect x="571" y="262.35" fill="none" stroke="#000000" stroke-miterlimit="10" width="39.685" height="39.686"/>
<rect x="625.156" y="262.35" fill="none" stroke="#000000" stroke-miterlimit="10" width="39.685" height="39.686"/>
<rect x="679.155" y="262.35" fill="none" stroke="#000000" stroke-miterlimit="10" width="39.686" height="39.686"/>
<rect x="732.999" y="262.35" fill="none" stroke="#000000" stroke-miterlimit="10" width="39.685" height="39.686"/>
<rect x="786.923" y="262.35" fill="none" stroke="#000000" stroke-miterlimit="10" width="39.685" height="39.686"/>
<rect x="840.923" y="262.35" fill="none" stroke="#000000" stroke-miterlimit="10" width="39.685" height="39.686"/>
<rect x="901.729" y="262.352" fill="none" stroke="#000000" stroke-miterlimit="10" width="39.686" height="39.686"/>
<rect x="159.231" y="316.35" fill="none" stroke="#000000" stroke-miterlimit="10" width="39.686" height="39.686"/>
<rect x="220.06" y="316.35" fill="none" stroke="#000000" stroke-miterlimit="10" width="39.685" height="39.686"/>
<rect x="274.06" y="316.35" fill="none" stroke="#000000" stroke-miterlimit="10" width="39.685" height="39.686"/>
<rect x="328.215" y="316.35" fill="none" stroke="#000000" stroke-miterlimit="10" width="39.685" height="39.686"/>
<rect x="382.215" y="316.35" fill="none" stroke="#000000" stroke-miterlimit="10" width="39.685" height="39.686"/>
<rect x="436.096" y="316.35" fill="none" stroke="#000000" stroke-miterlimit="10" width="39.685" height="39.686"/>
<rect x="490.02" y="316.35" fill="none" stroke="#000000" stroke-miterlimit="10" width="39.685" height="39.686"/>
<rect x="544.02" y="316.35" fill="none" stroke="#000000" stroke-miterlimit="10" width="39.685" height="39.686"/>
<rect x="598.175" y="316.35" fill="none" stroke="#000000" stroke-miterlimit="10" width="39.685" height="39.686"/>
<rect x="652.174" y="316.35" fill="none" stroke="#000000" stroke-miterlimit="10" width="39.686" height="39.686"/>
<rect x="706.018" y="316.35" fill="none" stroke="#000000" stroke-miterlimit="10" width="39.686" height="39.686"/>
<rect x="759.941" y="316.35" fill="none" stroke="#000000" stroke-miterlimit="10" width="39.686" height="39.686"/>
<rect x="813.941" y="316.35" fill="none" stroke="#000000" stroke-miterlimit="10" width="39.686" height="39.686"/>
<rect x="888.229" y="316.35" fill="none" stroke="#000000" stroke-miterlimit="10" width="39.686" height="39.686"/>
<rect x="152.464" y="370.348" fill="none" stroke="#000000" stroke-miterlimit="10" width="39.685" height="39.686"/>
<rect x="206.464" y="370.348" fill="none" stroke="#000000" stroke-miterlimit="10" width="39.685" height="39.686"/>
<rect x="260.619" y="370.348" fill="none" stroke="#000000" stroke-miterlimit="10" width="39.685" height="39.686"/>
<rect x="314.619" y="370.348" fill="none" stroke="#000000" stroke-miterlimit="10" width="39.685" height="39.686"/>
<rect x="382.215" y="370.348" fill="none" stroke="#000000" stroke-miterlimit="10" width="39.685" height="39.686"/>
<rect x="611.657" y="370.348" fill="none" stroke="#000000" stroke-miterlimit="10" width="39.685" height="39.686"/>
<rect x="686.175" y="370.357" fill="none" stroke="#000000" stroke-miterlimit="10" width="39.685" height="39.686"/>
<rect x="746.346" y="370.348" fill="none" stroke="#000000" stroke-miterlimit="10" width="39.686" height="39.686"/>
<rect x="800.346" y="370.348" fill="none" stroke="#000000" stroke-miterlimit="10" width="39.686" height="39.686"/>
<rect x="854.501" y="370.348" fill="none" stroke="#000000" stroke-miterlimit="10" width="39.685" height="39.686"/>
<rect x="908.501" y="370.348" fill="none" stroke="#000000" stroke-miterlimit="10" width="39.685" height="39.686"/>
<polygon fill="none" stroke="#000000" stroke-miterlimit="10" points="470.936,396.73 473.416,396.73 473.416,405.887 
	478.589,405.887 487.093,405.887 492.267,405.887 492.267,403.621 496.731,403.621 496.731,410.053 536.416,410.053 
	536.416,403.621 540.88,403.621 540.88,405.887 546.054,405.887 554.558,405.887 559.731,405.887 559.731,396.73 562.211,396.73 
	562.211,388.793 559.731,388.793 559.731,371.02 554.558,371.02 554.558,367.619 546.054,367.619 546.054,371.02 540.88,371.02 
	540.88,373.289 536.416,373.289 536.416,370.367 496.731,370.367 496.731,373.289 492.267,373.289 492.267,371.02 487.093,371.02 
	487.093,367.619 478.589,367.619 478.589,371.02 473.416,371.02 473.416,388.793 470.936,388.793 "/>
<polygon fill="none" stroke="#000000" stroke-miterlimit="10" points="1360.845,408.83 1360.845,406.35 1370.001,406.35 
	1370.001,401.176 1370.001,392.672 1370.001,387.5 1367.734,387.5 1367.734,383.035 1374.167,383.035 1374.167,343.35 
	1367.734,343.35 1367.734,338.885 1370.001,338.885 1370.001,333.713 1370.001,325.209 1370.001,320.035 1360.845,320.035 
	1360.845,317.555 1352.907,317.555 1352.907,320.035 1335.134,320.035 1335.134,325.209 1331.733,325.209 1331.733,333.713 
	1335.134,333.713 1335.134,338.885 1337.403,338.885 1337.403,343.35 1334.481,343.35 1334.481,383.035 1337.403,383.035 
	1337.403,387.5 1335.134,387.5 1335.134,392.672 1331.733,392.672 1331.733,401.176 1335.134,401.176 1335.134,406.35 
	1352.907,406.35 1352.907,408.83 "/>
<g>
	<path fill="none" stroke="#000000" stroke-miterlimit="10" d="M1394.646,411.022c0,7.795-6.378,14.173-14.173,14.173H14.173
		C6.378,425.195,0,418.817,0,411.022V14.173C0,6.378,6.378,0,14.173,0h1366.299c7.795,0,14.173,6.378,14.173,14.173V411.022z"/>
</g>
<path fill="none" stroke="#000000" stroke-miterlimit="10" d="M708.661,127.559c0,6.262-5.076,11.338-11.338,11.338l0,0
	c-6.262,0-11.338-5.076-11.338-11.338v-2.835c0-6.262,5.077-11.338,11.338-11.338l0,0c6.262,0,11.338,5.077,11.338,11.338V127.559z"
	/>
<path fill="none" stroke="#000000" stroke-miterlimit="10" d="M270.709,137.48c-6.263,0-11.339-5.076-11.339-11.338l0,0
	c0-6.262,5.076-11.338,11.339-11.338h2.835c6.262,0,11.338,5.077,11.338,11.338l0,0c0,6.262-5.076,11.338-11.338,11.338H270.709z"/>
<path fill="none" stroke="#000000" stroke-miterlimit="10" d="M1121.103,137.48c-6.263,0-11.339-5.076-11.339-11.338l0,0
	c0-6.262,5.076-11.338,11.339-11.338h2.835c6.262,0,11.338,5.077,11.338,11.338l0,0c0,6.262-5.076,11.338-11.338,11.338H1121.103z"
	/>
</svg>
