G04 MADE WITH FRITZING*
G04 WWW.FRITZING.ORG*
G04 DOUBLE SIDED*
G04 HOLES PLATED*
G04 CONTOUR ON CENTER OF CONTOUR VECTOR*
%ASAXBY*%
%FSLAX23Y23*%
%MOIN*%
%OFA0B0*%
%SFA1.0B1.0*%
%ADD10C,0.039370*%
%ADD11C,0.078000*%
%ADD12C,0.075000*%
%ADD13C,0.062992*%
%ADD14C,0.068000*%
%ADD15C,0.126000*%
%ADD16R,0.075000X0.075000*%
%ADD17R,0.055118X0.013780*%
%ADD18R,0.074803X0.070866*%
%ADD19R,0.070866X0.070866*%
%ADD20C,0.012000*%
%ADD21C,0.024000*%
%LNCOPPER0*%
G90*
G70*
G54D10*
X3963Y808D03*
G54D11*
X683Y257D03*
X783Y257D03*
X883Y257D03*
X983Y257D03*
X283Y957D03*
X383Y957D03*
X483Y957D03*
X583Y957D03*
X683Y957D03*
X783Y957D03*
X883Y957D03*
X983Y957D03*
X1083Y957D03*
X1183Y957D03*
X1283Y957D03*
X1383Y957D03*
X1583Y957D03*
X1683Y957D03*
X1783Y957D03*
X1883Y957D03*
X1983Y957D03*
X2083Y957D03*
X2183Y957D03*
X2283Y957D03*
X2383Y957D03*
X2483Y957D03*
X2583Y957D03*
G54D12*
X2777Y386D03*
X2777Y86D03*
X2877Y386D03*
X2877Y86D03*
X2977Y386D03*
X2977Y86D03*
X3077Y386D03*
X3077Y86D03*
X3177Y386D03*
X3177Y86D03*
X3277Y386D03*
X3277Y86D03*
X2777Y386D03*
X2777Y86D03*
X2877Y386D03*
X2877Y86D03*
X2977Y386D03*
X2977Y86D03*
X3077Y386D03*
X3077Y86D03*
X3177Y386D03*
X3177Y86D03*
X3277Y386D03*
X3277Y86D03*
G54D13*
X1284Y157D03*
X1384Y157D03*
X1484Y157D03*
X1584Y157D03*
X1684Y157D03*
X1784Y157D03*
X1884Y157D03*
X1984Y157D03*
X2084Y157D03*
X2184Y157D03*
X2284Y157D03*
X2384Y157D03*
X2484Y157D03*
X2584Y157D03*
X1284Y157D03*
X1384Y157D03*
X1484Y157D03*
X1584Y157D03*
X1684Y157D03*
X1784Y157D03*
X1884Y157D03*
X1984Y157D03*
X2084Y157D03*
X2184Y157D03*
X2284Y157D03*
X2384Y157D03*
X2484Y157D03*
X2584Y157D03*
X1283Y757D03*
X1383Y757D03*
X1483Y757D03*
X1583Y757D03*
X1683Y757D03*
X1783Y757D03*
X1883Y757D03*
X1983Y757D03*
X2083Y757D03*
X2183Y757D03*
X2283Y757D03*
X2383Y757D03*
X2483Y757D03*
X2583Y757D03*
X1283Y757D03*
X1383Y757D03*
X1483Y757D03*
X1583Y757D03*
X1683Y757D03*
X1783Y757D03*
X1883Y757D03*
X1983Y757D03*
X2083Y757D03*
X2183Y757D03*
X2283Y757D03*
X2383Y757D03*
X2483Y757D03*
X2583Y757D03*
X2233Y656D03*
X2233Y556D03*
X2233Y456D03*
X2233Y356D03*
X2233Y256D03*
X2233Y656D03*
X2233Y556D03*
X2233Y456D03*
X2233Y356D03*
X2233Y256D03*
X2436Y657D03*
X2436Y557D03*
X2436Y457D03*
X2436Y357D03*
X2436Y257D03*
X2436Y657D03*
X2436Y557D03*
X2436Y457D03*
X2436Y357D03*
X2436Y257D03*
X1383Y256D03*
X1383Y256D03*
G54D14*
X4110Y1200D03*
X4110Y1298D03*
X4188Y1298D03*
X4188Y1200D03*
G54D15*
X4295Y1012D03*
X4295Y1486D03*
G54D14*
X4110Y1200D03*
X4110Y1298D03*
X4188Y1298D03*
X4188Y1200D03*
G54D15*
X4295Y1012D03*
X4295Y1486D03*
G54D13*
X3265Y1195D03*
X3165Y1195D03*
X3065Y1195D03*
X2965Y1195D03*
X2865Y1195D03*
X3265Y1195D03*
X3165Y1195D03*
X3065Y1195D03*
X2965Y1195D03*
X2865Y1195D03*
X3265Y1295D03*
X3165Y1295D03*
X3065Y1295D03*
X2965Y1295D03*
X2865Y1295D03*
X3265Y1295D03*
X3165Y1295D03*
X3065Y1295D03*
X2965Y1295D03*
X2865Y1295D03*
X3265Y1395D03*
X3165Y1395D03*
X3065Y1395D03*
X2965Y1395D03*
X2865Y1395D03*
X3265Y1395D03*
X3165Y1395D03*
X3065Y1395D03*
X2965Y1395D03*
X2865Y1395D03*
G54D12*
X3398Y1195D03*
X3798Y1195D03*
X3398Y1195D03*
X3798Y1195D03*
X3399Y1297D03*
X3799Y1297D03*
X3399Y1297D03*
X3799Y1297D03*
X3399Y1395D03*
X3799Y1395D03*
X3399Y1395D03*
X3799Y1395D03*
G54D11*
X4164Y571D03*
X4164Y471D03*
X4164Y371D03*
X4164Y271D03*
X4367Y571D03*
X4367Y471D03*
X4367Y371D03*
X4367Y271D03*
G54D16*
X2777Y386D03*
X2777Y386D03*
G54D17*
X4461Y1300D03*
X4461Y1198D03*
X4461Y1275D03*
X4461Y1249D03*
X4461Y1223D03*
G54D18*
X4565Y1407D03*
X4565Y1092D03*
G54D19*
X4566Y1092D03*
X4566Y1406D03*
G54D20*
X3165Y1417D02*
X3165Y1494D01*
D02*
X2744Y610D02*
X2584Y610D01*
D02*
X2709Y657D02*
X2457Y657D01*
D02*
X2584Y610D02*
X2584Y178D01*
D02*
X2744Y1295D02*
X2744Y610D01*
D02*
X2709Y1395D02*
X2709Y657D01*
D02*
X4188Y1375D02*
X3967Y1375D01*
D02*
X4188Y1317D02*
X4188Y1375D01*
D02*
X4038Y1297D02*
X4090Y1298D01*
D02*
X4038Y1120D02*
X4038Y1297D01*
D02*
X2844Y1295D02*
X2744Y1295D01*
D02*
X2844Y1395D02*
X2709Y1395D01*
G54D21*
D02*
X3799Y1486D02*
X4241Y1486D01*
D02*
X3799Y1423D02*
X3799Y1486D01*
D02*
X4188Y1373D02*
X3963Y1373D01*
D02*
X3963Y1373D02*
X3963Y827D01*
D02*
X4188Y1323D02*
X4188Y1373D01*
D02*
X4295Y86D02*
X3305Y86D01*
D02*
X4295Y958D02*
X4295Y86D01*
D02*
X3798Y571D02*
X3798Y1167D01*
D02*
X4134Y571D02*
X3798Y571D01*
D02*
X3065Y931D02*
X3065Y1168D01*
D02*
X3726Y271D02*
X3726Y931D01*
D02*
X3726Y931D02*
X3065Y931D01*
D02*
X4134Y271D02*
X3726Y271D01*
D02*
X1384Y86D02*
X1384Y130D01*
D02*
X2748Y86D02*
X1384Y86D01*
D02*
X683Y87D02*
X683Y227D01*
D02*
X1384Y87D02*
X683Y87D01*
D02*
X1356Y256D02*
X1013Y257D01*
D02*
X1384Y130D02*
X1384Y87D01*
D02*
X3248Y86D02*
X3205Y86D01*
D02*
X3148Y86D02*
X3105Y86D01*
D02*
X3048Y86D02*
X3005Y86D01*
D02*
X2948Y86D02*
X2905Y86D01*
D02*
X2848Y86D02*
X2805Y86D01*
G54D20*
D02*
X4038Y1120D02*
X4352Y1120D01*
D02*
X4352Y1120D02*
X4352Y1274D01*
D02*
X4352Y1274D02*
X4439Y1275D01*
D02*
X3967Y1375D02*
X3967Y1094D01*
D02*
X3967Y1094D02*
X4381Y1094D01*
D02*
X4381Y1094D02*
X4381Y1249D01*
D02*
X4381Y1249D02*
X4439Y1249D01*
D02*
X4110Y1144D02*
X4320Y1144D01*
D02*
X4320Y1144D02*
X4320Y1300D01*
D02*
X4320Y1300D02*
X4439Y1300D01*
D02*
X4110Y1180D02*
X4110Y1144D01*
D02*
X2583Y778D02*
X2583Y932D01*
D02*
X2483Y932D02*
X2483Y778D01*
D02*
X2383Y932D02*
X2383Y778D01*
D02*
X2283Y932D02*
X2283Y778D01*
D02*
X2183Y932D02*
X2183Y778D01*
D02*
X2083Y932D02*
X2083Y778D01*
D02*
X1983Y932D02*
X1983Y778D01*
D02*
X1883Y932D02*
X1883Y778D01*
D02*
X1783Y932D02*
X1783Y778D01*
D02*
X1683Y932D02*
X1683Y778D01*
D02*
X1583Y932D02*
X1583Y778D01*
D02*
X1584Y206D02*
X1584Y178D01*
D02*
X283Y403D02*
X1310Y403D01*
D02*
X1310Y403D02*
X1584Y206D01*
D02*
X283Y932D02*
X283Y403D01*
D02*
X1684Y207D02*
X1684Y178D01*
D02*
X383Y431D02*
X1373Y431D01*
D02*
X1373Y431D02*
X1684Y207D01*
D02*
X383Y932D02*
X383Y431D01*
D02*
X1784Y206D02*
X1784Y178D01*
D02*
X483Y460D02*
X1433Y460D01*
D02*
X1433Y460D02*
X1784Y206D01*
D02*
X483Y932D02*
X483Y460D01*
D02*
X1884Y206D02*
X1884Y178D01*
D02*
X583Y488D02*
X1492Y488D01*
D02*
X1492Y488D02*
X1884Y206D01*
D02*
X583Y932D02*
X583Y488D01*
D02*
X1984Y206D02*
X1984Y178D01*
D02*
X683Y515D02*
X1554Y515D01*
D02*
X1554Y515D02*
X1984Y206D01*
D02*
X683Y932D02*
X683Y515D01*
D02*
X2084Y207D02*
X2084Y178D01*
D02*
X783Y543D02*
X1618Y543D01*
D02*
X1618Y543D02*
X2084Y207D01*
D02*
X783Y932D02*
X783Y543D01*
D02*
X2184Y204D02*
X2184Y178D01*
D02*
X883Y571D02*
X1674Y571D01*
D02*
X1674Y571D02*
X2184Y204D01*
D02*
X883Y932D02*
X883Y571D01*
D02*
X2183Y307D02*
X2284Y307D01*
D02*
X2284Y307D02*
X2284Y178D01*
D02*
X983Y597D02*
X1783Y597D01*
D02*
X1783Y597D02*
X2183Y307D01*
D02*
X983Y932D02*
X983Y597D01*
D02*
X2183Y407D02*
X2314Y407D01*
D02*
X2314Y407D02*
X2314Y225D01*
D02*
X2314Y225D02*
X2369Y171D01*
D02*
X1083Y625D02*
X1892Y625D01*
D02*
X1892Y625D02*
X2183Y407D01*
D02*
X1083Y932D02*
X1083Y625D01*
D02*
X2183Y507D02*
X2344Y507D01*
D02*
X2344Y507D02*
X2344Y250D01*
D02*
X2344Y250D02*
X2466Y168D01*
D02*
X1996Y652D02*
X2183Y507D01*
D02*
X1183Y652D02*
X1996Y652D01*
D02*
X1183Y932D02*
X1183Y652D01*
D02*
X1232Y891D02*
X1232Y680D01*
D02*
X2183Y607D02*
X2374Y607D01*
D02*
X2374Y607D02*
X2374Y291D01*
D02*
X2374Y291D02*
X2417Y267D01*
D02*
X2100Y680D02*
X2183Y607D01*
D02*
X1232Y680D02*
X2100Y680D01*
D02*
X1268Y937D02*
X1232Y891D01*
D02*
X4410Y1012D02*
X4410Y1198D01*
D02*
X4410Y1198D02*
X4439Y1198D01*
D02*
X4343Y1012D02*
X4410Y1012D01*
D02*
X4566Y1198D02*
X4566Y1372D01*
D02*
X4483Y1198D02*
X4566Y1198D01*
G54D21*
D02*
X4566Y1367D02*
X4566Y1131D01*
G54D20*
D02*
X2233Y707D02*
X2233Y678D01*
D02*
X2672Y707D02*
X2233Y707D01*
D02*
X2672Y1494D02*
X2672Y707D01*
D02*
X3165Y1494D02*
X2672Y1494D01*
G54D21*
D02*
X3292Y1195D02*
X3369Y1195D01*
D02*
X3292Y1296D02*
X3370Y1296D01*
D02*
X3292Y1395D02*
X3370Y1395D01*
D02*
X2965Y1268D02*
X2965Y1222D01*
D02*
X2965Y1322D02*
X2965Y1368D01*
D02*
X3799Y1268D02*
X3798Y1224D01*
D02*
X3799Y1325D02*
X3799Y1366D01*
D02*
X3065Y1268D02*
X3065Y1222D01*
D02*
X3065Y1322D02*
X3065Y1368D01*
D02*
X4194Y571D02*
X4337Y571D01*
D02*
X4295Y571D02*
X4295Y958D01*
D02*
X4194Y571D02*
X4295Y571D01*
D02*
X4295Y571D02*
X4337Y571D01*
D02*
X4295Y958D02*
X4295Y571D01*
G04 End of Copper0*
M02*