G04 MADE WITH FRITZING*
G04 WWW.FRITZING.ORG*
G04 DOUBLE SIDED*
G04 HOLES PLATED*
G04 CONTOUR ON CENTER OF CONTOUR VECTOR*
%ASAXBY*%
%FSLAX23Y23*%
%MOIN*%
%OFA0B0*%
%SFA1.0B1.0*%
%ADD10C,0.049370*%
%ADD11C,0.088000*%
%ADD12C,0.085000*%
%ADD13C,0.175354*%
%ADD14C,0.072992*%
%ADD15C,0.078000*%
%ADD16C,0.136000*%
%ADD17R,0.085000X0.085000*%
%ADD18R,0.065118X0.023779*%
%ADD19R,0.084803X0.080866*%
%ADD20R,0.080866X0.080866*%
%LNMASK0*%
G90*
G70*
G54D10*
X3963Y808D03*
G54D11*
X683Y257D03*
X783Y257D03*
X883Y257D03*
X983Y257D03*
X283Y957D03*
X383Y957D03*
X483Y957D03*
X583Y957D03*
X683Y957D03*
X783Y957D03*
X883Y957D03*
X983Y957D03*
X1083Y957D03*
X1183Y957D03*
X1283Y957D03*
X1383Y957D03*
X1583Y957D03*
X1683Y957D03*
X1783Y957D03*
X1883Y957D03*
X1983Y957D03*
X2083Y957D03*
X2183Y957D03*
X2283Y957D03*
X2383Y957D03*
X2483Y957D03*
X2583Y957D03*
G54D12*
X2777Y386D03*
X2777Y86D03*
X2877Y386D03*
X2877Y86D03*
X2977Y386D03*
X2977Y86D03*
X3077Y386D03*
X3077Y86D03*
X3177Y386D03*
X3177Y86D03*
X3277Y386D03*
X3277Y86D03*
X2777Y386D03*
X2777Y86D03*
X2877Y386D03*
X2877Y86D03*
X2977Y386D03*
X2977Y86D03*
X3077Y386D03*
X3077Y86D03*
X3177Y386D03*
X3177Y86D03*
X3277Y386D03*
X3277Y86D03*
G54D13*
X4589Y734D03*
X139Y734D03*
G54D14*
X1284Y157D03*
X1384Y157D03*
X1484Y157D03*
X1584Y157D03*
X1684Y157D03*
X1784Y157D03*
X1884Y157D03*
X1984Y157D03*
X2084Y157D03*
X2184Y157D03*
X2284Y157D03*
X2384Y157D03*
X2484Y157D03*
X2584Y157D03*
X1284Y157D03*
X1384Y157D03*
X1484Y157D03*
X1584Y157D03*
X1684Y157D03*
X1784Y157D03*
X1884Y157D03*
X1984Y157D03*
X2084Y157D03*
X2184Y157D03*
X2284Y157D03*
X2384Y157D03*
X2484Y157D03*
X2584Y157D03*
X1283Y757D03*
X1383Y757D03*
X1483Y757D03*
X1583Y757D03*
X1683Y757D03*
X1783Y757D03*
X1883Y757D03*
X1983Y757D03*
X2083Y757D03*
X2183Y757D03*
X2283Y757D03*
X2383Y757D03*
X2483Y757D03*
X2583Y757D03*
X1283Y757D03*
X1383Y757D03*
X1483Y757D03*
X1583Y757D03*
X1683Y757D03*
X1783Y757D03*
X1883Y757D03*
X1983Y757D03*
X2083Y757D03*
X2183Y757D03*
X2283Y757D03*
X2383Y757D03*
X2483Y757D03*
X2583Y757D03*
X2233Y656D03*
X2233Y556D03*
X2233Y456D03*
X2233Y356D03*
X2233Y256D03*
X2233Y656D03*
X2233Y556D03*
X2233Y456D03*
X2233Y356D03*
X2233Y256D03*
X2436Y657D03*
X2436Y557D03*
X2436Y457D03*
X2436Y357D03*
X2436Y257D03*
X2436Y657D03*
X2436Y557D03*
X2436Y457D03*
X2436Y357D03*
X2436Y257D03*
X1383Y256D03*
X1383Y256D03*
G54D15*
X4110Y1200D03*
X4110Y1298D03*
X4188Y1298D03*
X4188Y1200D03*
G54D16*
X4295Y1012D03*
X4295Y1486D03*
G54D15*
X4110Y1200D03*
X4110Y1298D03*
X4188Y1298D03*
X4188Y1200D03*
G54D16*
X4295Y1012D03*
X4295Y1486D03*
G54D14*
X3265Y1195D03*
X3165Y1195D03*
X3065Y1195D03*
X2965Y1195D03*
X2865Y1195D03*
X3265Y1195D03*
X3165Y1195D03*
X3065Y1195D03*
X2965Y1195D03*
X2865Y1195D03*
X3265Y1295D03*
X3165Y1295D03*
X3065Y1295D03*
X2965Y1295D03*
X2865Y1295D03*
X3265Y1295D03*
X3165Y1295D03*
X3065Y1295D03*
X2965Y1295D03*
X2865Y1295D03*
X3265Y1395D03*
X3165Y1395D03*
X3065Y1395D03*
X2965Y1395D03*
X2865Y1395D03*
X3265Y1395D03*
X3165Y1395D03*
X3065Y1395D03*
X2965Y1395D03*
X2865Y1395D03*
G54D12*
X3398Y1195D03*
X3798Y1195D03*
X3398Y1195D03*
X3798Y1195D03*
X3399Y1297D03*
X3799Y1297D03*
X3399Y1297D03*
X3799Y1297D03*
X3399Y1395D03*
X3799Y1395D03*
X3399Y1395D03*
X3799Y1395D03*
G54D11*
X4164Y571D03*
X4164Y471D03*
X4164Y371D03*
X4164Y271D03*
X4367Y571D03*
X4367Y471D03*
X4367Y371D03*
X4367Y271D03*
G54D17*
X2777Y386D03*
X2777Y386D03*
G54D18*
X4461Y1300D03*
X4461Y1198D03*
X4461Y1275D03*
X4461Y1249D03*
X4461Y1223D03*
G54D19*
X4565Y1407D03*
X4565Y1092D03*
G54D20*
X4566Y1092D03*
X4566Y1406D03*
G04 End of Mask0*
M02*