; NON-PLATED HOLES START AT T1
; THROUGH (PLATED) HOLES START AT T100
M48
INCH
T1C0.165354
T100C0.028000
T101C0.086000
T102C0.015748
T103C0.031496
T104C0.035000
T105C0.038000
%
T1
X001388Y007344
X045888Y007344
T100
X041097Y012978
X041097Y011998
X041877Y011998
X041877Y012978
T101
X042947Y014858
X042947Y010118
T102
X039629Y008077
T103
X013840Y001565
X015830Y007565
X018840Y001565
X032650Y013952
X015840Y001565
X017840Y001565
X022333Y004564
X014830Y007565
X012830Y007565
X031650Y013952
X024359Y005569
X024359Y002569
X025830Y007565
X024359Y003569
X020830Y007565
X028650Y011952
X017830Y007565
X029650Y013952
X022333Y005564
X029650Y012952
X022333Y002564
X024840Y001565
X029650Y011952
X028650Y012952
X032650Y012952
X025840Y001565
X019840Y001565
X024359Y006569
X014840Y001565
X023840Y001565
X022333Y003564
X013833Y002560
X021840Y001565
X032650Y011952
X022333Y006564
X023830Y007565
X013830Y007565
X018830Y007565
X020840Y001565
X031650Y012952
X019830Y007565
X016840Y001565
X022830Y007565
X030650Y011952
X022840Y001565
X024359Y004569
X024830Y007565
X030650Y013952
X012840Y001565
X031650Y011952
X021830Y007565
X028650Y013952
X030650Y012952
X016830Y007565
T104
X031766Y000855
X029766Y000855
X037987Y013945
X028766Y000855
X028766Y003855
X027766Y003855
X033980Y011952
X033987Y012967
X033987Y013945
X027766Y000855
X037980Y011952
X031766Y003855
X030766Y003855
X032766Y003855
X030766Y000855
X032766Y000855
X037987Y012967
X029766Y003855
T105
X020833Y009566
X009833Y002568
X043666Y003705
X025833Y009566
X008833Y002568
X021833Y009566
X041638Y003705
X007833Y009566
X005833Y009566
X013833Y009566
X011833Y009566
X010833Y009566
X022833Y009566
X018833Y009566
X015833Y009566
X017833Y009566
X002833Y009566
X003833Y009566
X024833Y009566
X043666Y004705
X008833Y009566
X023833Y009566
X006833Y009566
X004833Y009566
X007833Y002568
X041638Y002705
X043666Y005705
X043666Y002705
X019833Y009566
X041638Y004705
X016833Y009566
X012833Y009566
X041638Y005705
X006833Y002568
X009833Y009566
T00
M30
