; NON-PLATED HOLES START AT T1
; THROUGH (PLATED) HOLES START AT T100
M48
INCH
T1C0.314960
T2C0.157480
T3C0.065278
T4C0.120079
T5C0.165354
T6C0.158908
T100C0.042000
T101C0.015748
T102C0.038000
T103C0.036972
%
T1
X156097Y044102
X038023Y044091
X096838Y043868
X096838Y044325
X155641Y044102
X037562Y044092
T2
X076443Y010686
X067054Y010686
X184805Y015880
X184804Y006491
T3
X011097Y007440
X145234Y014950
X036930Y052039
X015090Y007440
X123406Y052039
X050257Y014936
X093164Y052039
X074668Y052039
X048424Y007440
X085653Y007440
X117542Y022436
X072746Y014936
X121536Y022436
X044646Y029936
X087746Y014936
X063413Y037440
X186046Y037446
X171046Y022446
X095257Y014936
X178546Y014946
X175040Y022446
X156728Y029950
X089419Y037440
X163554Y022446
X104421Y052039
X057746Y014936
X167548Y037446
X163554Y007446
X175040Y007446
X015090Y052039
X106264Y014936
X156728Y037439
X175040Y037446
X007590Y007443
X110258Y014936
X115906Y052039
X115925Y037440
X044430Y037440
X011097Y052039
X111931Y037440
X186046Y011205
X089646Y007440
X095041Y022436
X141728Y052039
X112147Y029936
X175040Y014946
X167548Y014946
X152734Y037439
X119431Y037440
X082157Y052039
X182540Y037446
X028718Y022436
X108425Y007440
X033153Y029936
X145234Y037439
X163554Y014946
X128086Y014936
X040924Y052039
X190040Y037446
X035257Y014936
X119647Y029936
X059430Y052039
X182540Y014946
X104646Y029936
X123425Y007440
X068753Y014936
X190040Y029946
X011097Y037440
X137734Y052039
X111931Y007440
X190040Y052039
X091264Y014936
X038764Y014936
X149228Y014950
X040924Y007440
X063141Y029936
X152734Y029950
X011097Y029944
X080030Y022436
X021930Y037440
X145234Y052039
X048153Y029936
X085913Y037440
X125953Y022436
X051930Y037440
X084024Y022436
X095953Y007440
X052146Y029936
X015090Y037440
X070913Y037440
X042541Y022436
X130925Y037440
X085675Y052039
X178546Y007446
X141728Y029950
X098764Y014936
X182540Y022446
X070675Y052039
X003597Y052039
X007590Y029943
X149228Y052039
X078141Y029936
X050041Y022436
X125042Y029936
X099035Y022436
X178546Y022446
X149228Y007438
X130906Y052039
X015090Y022440
X021930Y052039
X190040Y011205
X029430Y037440
X063424Y052039
X117758Y014936
X067135Y029936
X055924Y037440
X113764Y014936
X097157Y052039
X163554Y037446
X171046Y007446
X126931Y007440
X167548Y022446
X035042Y022436
X137734Y029950
X033424Y037440
X163555Y052039
X040653Y029936
X078413Y037440
X044430Y007440
X074419Y037440
X106536Y022436
X055924Y052039
X037146Y029936
X007590Y014943
X082135Y029936
X093413Y037440
X171046Y029946
X102758Y014936
X100924Y037440
X040924Y037440
X003597Y037443
X119412Y052039
X108415Y052039
X081919Y037440
X025924Y037440
X167548Y007446
X114036Y022436
X186046Y052039
X091524Y022436
X007590Y022443
X042757Y014936
X024725Y022436
X178546Y037446
X015090Y014944
X115925Y007440
X145234Y029950
X130925Y007440
X007590Y052039
X129947Y022436
X119431Y007440
X021930Y007440
X003597Y022443
X076524Y022436
X036930Y007440
X011097Y022440
X027785Y029936
X007590Y037443
X167548Y029946
X178546Y029946
X175039Y052039
X156728Y052039
X108153Y029936
X186046Y022446
X182540Y007446
X048424Y037440
X066919Y037440
X011097Y014944
X126912Y052039
X061524Y022436
X025924Y052039
X137734Y007438
X061253Y014936
X022836Y014936
X102542Y022436
X104431Y007440
X083753Y014936
X046535Y022436
X145234Y007438
X059635Y029936
X152734Y052039
X137734Y037439
X029430Y007440
X015090Y029944
X089668Y052039
X080246Y014936
X182540Y029946
X031264Y014936
X171045Y052039
X003597Y014943
X057768Y007440
X003597Y029943
X073713Y007440
X129036Y029936
X055641Y029936
X171046Y014946
X171046Y037446
X110042Y022436
X044430Y052039
X025924Y007440
X085641Y029936
X126931Y037440
X054035Y022436
X070641Y029936
X156728Y007438
X048424Y052039
X093153Y029936
X149228Y029950
X175040Y029946
X069024Y022436
X051930Y052039
X100653Y029936
X186046Y029946
X078164Y052039
X089635Y029936
X036930Y037440
X149228Y037439
X059419Y037440
X039035Y022436
X053775Y007440
X111912Y052039
X190040Y022446
X033424Y007440
X124092Y014936
X074635Y029936
X026829Y014936
X065030Y022436
X096930Y037440
X099946Y007440
X152734Y007438
X123425Y037440
X115653Y029936
X053753Y014936
X003597Y007443
X178546Y052039
X163554Y029946
X046264Y014936
X167549Y052039
X076253Y014936
X072530Y022436
X182540Y052039
X069719Y007440
X065246Y014936
X023792Y029936
X141728Y007438
X057530Y022436
X097146Y029936
X108425Y037440
X104431Y037440
X141728Y037439
X087530Y022436
T4
X076415Y004686
X190805Y015852
X067054Y004686
X190805Y006491
T5
X037276Y056102
X081776Y056102
T6
X023930Y037440
X188046Y022446
X093264Y014936
X040764Y014936
X097041Y022436
X128931Y037440
X068919Y037440
X072641Y029936
X067030Y022436
X026725Y022436
X188046Y037446
X048264Y014936
X154734Y037439
X188046Y052039
X053930Y037440
X154734Y029950
X180546Y052039
X139734Y007438
X038930Y052039
X147234Y029950
X023930Y052039
X098930Y037440
X013097Y029944
X087641Y029936
X038930Y007440
X127042Y029936
X057641Y029936
X076419Y037440
X053930Y052039
X165554Y037446
X005597Y007443
X071719Y007440
X173045Y052039
X097952Y007440
X070752Y014936
X139734Y037439
X180546Y007446
X139734Y029950
X013097Y022440
X089530Y022436
X080164Y052039
X154734Y052039
X083919Y037440
X173046Y029946
X113912Y052039
X180546Y029946
X173046Y037446
X091419Y037440
X095152Y029936
X154734Y007438
X112042Y022436
X013097Y052039
X147234Y014950
X013097Y014944
X050152Y029936
X087652Y007440
X165554Y022446
X106421Y052039
X074530Y022436
X065141Y029936
X052041Y022436
X165554Y007446
X121431Y037440
X121412Y052039
X005597Y029943
X037041Y022436
X085752Y014936
X038930Y037440
X108264Y014936
X061430Y052039
X128931Y007440
X080141Y029936
X173046Y007446
X031430Y007440
X121431Y007440
X106431Y037440
X082030Y022436
X165554Y014946
X035152Y029936
X147234Y037439
X005597Y052039
X104542Y022436
X046430Y007440
X113931Y007440
X110153Y029936
X173046Y014946
X046430Y052039
X033264Y014936
X055752Y014936
X095164Y052039
X180546Y014946
X127953Y022436
X005597Y037443
X023930Y007440
X063252Y014936
X173046Y022446
X115764Y014936
X139734Y052039
X113931Y037440
X044541Y022436
X055775Y007440
X188046Y011205
X119542Y022436
X165555Y052039
X087675Y052039
X147234Y052039
X102653Y029936
X078252Y014936
X126092Y014936
X106431Y007440
X059530Y022436
X128912Y052039
X013097Y037440
X013097Y007440
X005597Y014943
X180546Y037446
X100764Y014936
X025791Y029936
X046430Y037440
X024836Y014936
X042652Y029936
X005597Y022443
X031430Y037440
X180546Y022446
X188046Y029946
X117653Y029936
X072675Y052039
X061419Y037440
X147234Y007438
X165554Y029946
T100
X156211Y015176
X038516Y026213
X004094Y018680
X046016Y026213
X145731Y011213
X182017Y011213
X021027Y044954
X080488Y043510
X022434Y043436
X023342Y018713
X119128Y033713
X081627Y033713
X077508Y043510
X101578Y043533
X035536Y026213
X127426Y011213
X127439Y043561
X027266Y033713
X144287Y043436
X116148Y033713
X144287Y044917
X182017Y026213
X007074Y033680
X093647Y033713
X011605Y033725
X069953Y043510
X136787Y043436
X145731Y020741
X010271Y044947
X122892Y043561
X072933Y044954
X072933Y043510
X048360Y043510
X096627Y033713
X014585Y033725
X147267Y044917
X189581Y043547
X104558Y043533
X076016Y026213
X174554Y043547
X164064Y026213
X005740Y044902
X059127Y033713
X004094Y043347
X028211Y026213
X188072Y044963
X139767Y043436
X118037Y026213
X118453Y045075
X072238Y018713
X180572Y044963
X113933Y045075
X048647Y033713
X096453Y011213
X114259Y018713
X007074Y043347
X115406Y011213
X179037Y018713
X051340Y043510
X050536Y026213
X084975Y043554
X061758Y018713
X004094Y011125
X145731Y033713
X029925Y011213
X170092Y044963
X108648Y033713
X080488Y044954
X167017Y018713
X065536Y026213
X076758Y018713
X167044Y011213
X053516Y026213
X064738Y018713
X049694Y044917
X128517Y033713
X042238Y018713
X024007Y044954
X121433Y045075
X149546Y044917
X014585Y043391
X054258Y018713
X014585Y018725
X094738Y018713
X086147Y033713
X127572Y018713
X043471Y044991
X153231Y033713
X141211Y015213
X034738Y018713
X148711Y020741
X189517Y018741
X179064Y033713
X152526Y044917
X036627Y033713
X089127Y033713
X102239Y018713
X099433Y011213
X087238Y018713
X101176Y033713
X130419Y043561
X063647Y033713
X112426Y011213
X087955Y043554
X067562Y045028
X069258Y018713
X062434Y043510
X164064Y033713
X115392Y043561
X041147Y033686
X057138Y044991
X058036Y026213
X057266Y011213
X119912Y043561
X167081Y043547
X121017Y026213
X039258Y018713
X109739Y018713
X029879Y044991
X179037Y011213
X130406Y011213
X083516Y026213
X148711Y011213
X089920Y044991
X056147Y033713
X186537Y033713
X054286Y011213
X129433Y026213
X057238Y018713
X107906Y011213
X070231Y011213
X182054Y043547
X141211Y033713
X044488Y043436
X098516Y026213
X069953Y044954
X106759Y018713
X179074Y043547
X057933Y043473
X066627Y033713
X174517Y011213
X113517Y026213
X032859Y044991
X162620Y044963
X011605Y018725
X068516Y026213
X185092Y044963
X086147Y011213
X091758Y018713
X126453Y026213
X174517Y026213
X014585Y026169
X167044Y026213
X065414Y043510
X037425Y011213
X089127Y011213
X031758Y018713
X186537Y026213
X099259Y018713
X173072Y044963
X111628Y033713
X011605Y026169
X125537Y033713
X041508Y043436
X103037Y026213
X007074Y018680
X156211Y033713
X092900Y044991
X171574Y043547
X080536Y026213
X152544Y043436
X171537Y011213
X013251Y044947
X149564Y043436
X106017Y026213
X043036Y026213
X138231Y033713
X124592Y018713
X164101Y043547
X138231Y015213
X061016Y026213
X110953Y045075
X025231Y026213
X167044Y033713
X004094Y033680
X078647Y033713
X112412Y043561
X182044Y033713
X084964Y044991
X002760Y044902
X182017Y018713
X128961Y045075
X074127Y033713
X148711Y033713
X014585Y011169
X029916Y043399
X095536Y026213
X153231Y015176
X026322Y018713
X052674Y044917
X025414Y043436
X147267Y043436
X171537Y033713
X087944Y044991
X089923Y043465
X174517Y018713
X047905Y011213
X007074Y011125
X007074Y026125
X117239Y018713
X103044Y045047
X088036Y026213
X186537Y018741
X119926Y011213
X177592Y044963
X004094Y026125
X022425Y011213
X077508Y044954
X051627Y033713
X171537Y026213
X046451Y044991
X174517Y033713
X032896Y043399
X011605Y011169
X189517Y026213
X171537Y018713
X091016Y026213
X060118Y044991
X165600Y044963
X100064Y045047
X125981Y045075
X104156Y033713
X179037Y026213
X139748Y044917
X164037Y018713
X136768Y044917
X073211Y011213
X032905Y011213
X073036Y026213
X164064Y011213
X025405Y011213
X092903Y043465
X054953Y043473
X186601Y043547
X046758Y018713
X049738Y018713
X044127Y033686
X122906Y011213
X084258Y018713
X104926Y011213
X011605Y043391
X040405Y011213
X024286Y033713
X079738Y018713
X071147Y033713
X064582Y045028
X033647Y033713
X189517Y033713
X110537Y026213
X044925Y011213
T101
X111999Y018713
X191054Y026213
X030221Y026213
X009332Y026139
X158110Y033741
X017054Y026158
X168999Y026213
X091016Y033713
X100999Y024434
X131832Y033713
X183388Y026213
X082332Y018713
X176332Y026213
X059221Y018695
X106369Y033732
X074998Y018713
X066332Y018695
X161943Y020769
X123110Y026213
T102
X046721Y058325
X044721Y058325
X051721Y058325
X055721Y058325
X058721Y058325
X052721Y058325
X048721Y058325
X061721Y058325
X047721Y058325
X049721Y058325
X039721Y058325
X038721Y058325
X053721Y058325
X060721Y058325
X057721Y058325
X054721Y058325
X043721Y058325
X041721Y058325
X059721Y058325
X040721Y058325
X056721Y058325
X042721Y058325
X045721Y058325
T103
X031765Y015936
X145735Y008439
X088032Y023436
X119913Y053039
X179047Y038446
X127413Y053039
X058032Y023436
X138235Y008439
X022432Y008441
X118043Y023436
X006594Y009442
X096161Y054037
X078665Y053039
X125543Y030936
X094261Y016934
X108654Y030936
X181543Y016945
X014094Y009439
X043043Y023436
X054276Y008441
X004098Y008444
X119932Y008441
X096454Y008441
X049261Y016934
X060527Y024434
X089920Y038441
X081138Y031934
X025226Y023436
X047427Y039439
X145735Y015950
X114265Y015936
X174042Y054037
X023337Y015936
X119932Y038441
X039927Y054037
X059920Y038441
X186547Y038446
X044932Y053039
X186547Y030946
X032427Y039439
X164055Y038446
X148231Y016948
X174043Y009445
X140731Y031948
X166551Y039445
X024927Y054037
X006594Y016942
X088638Y031934
X071749Y016934
X024927Y009439
X186547Y023446
X171547Y015946
X111150Y031934
X084916Y039439
X024927Y039439
X098038Y024434
X153235Y038439
X006594Y054037
X022432Y038441
X022432Y053039
X095543Y023436
X041761Y016934
X174043Y031945
X036149Y031934
X166551Y031945
X171547Y038446
X024293Y030936
X114909Y054037
X112413Y053039
X054254Y015936
X171546Y053039
X062416Y039439
X099927Y039439
X140731Y009437
X179047Y030946
X011598Y015944
X058638Y031934
X071176Y053039
X050543Y023436
X104932Y038441
X046765Y015936
X073638Y031934
X105539Y024434
X181543Y039445
X014094Y031943
X063643Y030936
X011598Y053039
X068027Y024434
X011598Y030944
X069254Y015936
X044932Y008441
X033654Y030936
X034261Y016934
X153235Y030950
X164055Y015946
X122409Y054037
X062427Y054037
X107428Y039439
X014094Y054037
X088649Y009439
X080532Y023436
X103650Y031934
X112432Y038441
X052432Y038441
X164055Y023446
X045538Y024434
X101761Y016934
X086154Y008441
X110543Y023436
X179047Y053039
X138235Y053039
X096149Y031934
X179047Y008446
X011598Y023440
X077416Y039439
X145735Y053039
X014094Y039439
X122428Y009439
X025833Y016934
X056772Y009439
X113039Y024434
X145735Y038439
X164056Y053039
X127432Y008441
X129928Y039439
X181543Y031945
X155731Y039437
X114928Y039439
X038038Y024434
X166552Y054037
X128039Y031934
X107418Y054037
X044932Y038441
X075527Y024434
X052432Y053039
X054927Y039439
X140731Y054037
X189043Y031945
X104932Y008441
X006594Y031942
X014094Y024439
X189043Y054037
X064249Y016934
X004098Y038444
X067420Y038441
X069916Y039439
X029932Y008441
X179047Y023446
X043649Y031934
X118650Y031934
X181543Y009445
X071143Y030936
X145735Y030950
X006594Y039442
X061754Y015936
X078643Y030936
X189043Y039445
X181543Y054037
X048654Y030936
X122428Y039439
X076754Y015936
X086143Y030936
X035543Y023436
X004098Y053039
X166551Y016945
X106765Y015936
X129928Y009439
X104922Y053039
X056749Y016934
X153235Y053039
X047427Y054037
X088672Y054037
X164055Y008446
X189043Y024445
X086749Y016934
X181543Y024445
X109261Y016934
X004098Y023444
X039927Y009439
X171547Y008446
X027722Y024434
X066138Y031934
X084254Y015936
X148231Y039437
X148231Y009437
X014094Y016942
X053038Y024434
X065532Y023436
X140731Y039437
X056143Y030936
X155731Y009437
X164055Y030946
X103043Y023436
X155731Y031948
X127089Y016934
X029932Y038441
X037432Y053039
X189043Y013204
X041154Y030936
X171547Y030946
X186547Y012205
X074920Y038441
X073032Y023436
X072716Y009439
X128950Y024434
X166551Y024445
X073672Y054037
X083027Y024434
X011598Y038440
X174043Y024445
X092416Y039439
X174043Y016945
X093654Y030936
X153235Y008439
X091765Y015936
X114928Y009439
X107428Y009439
X171547Y023446
X097432Y038441
X120539Y024434
X037432Y008441
X039265Y015936
X116761Y016934
X090527Y024434
X039927Y039439
X004098Y030944
X112432Y008441
X054927Y054037
X086176Y053039
X079249Y016934
X006594Y024442
X126454Y023436
X098949Y009439
X174043Y039445
X148231Y031948
X011598Y008440
X138235Y030950
X138235Y038439
X155731Y054037
X051149Y031934
X037432Y038441
X070220Y008441
X148231Y054037
X186547Y053039
X026788Y031934
X129909Y054037
X124593Y015936
X116154Y030936
X004098Y015944
X047427Y009439
X101154Y030936
X179047Y015946
X032427Y009439
X166551Y009445
X081161Y054037
X059932Y053039
X099265Y015936
X082420Y038441
X127432Y038441
X093665Y053039
T00
M30
