G04 MADE WITH FRITZING*
G04 WWW.FRITZING.ORG*
G04 DOUBLE SIDED*
G04 HOLES PLATED*
G04 CONTOUR ON CENTER OF CONTOUR VECTOR*
%ASAXBY*%
%FSLAX23Y23*%
%MOIN*%
%OFA0B0*%
%SFA1.0B1.0*%
%ADD10C,0.324960*%
%ADD11C,0.167480*%
%ADD12C,0.130079*%
%ADD13C,0.088639*%
%ADD14C,0.158908*%
%ADD15C,0.065278*%
%ADD16C,0.092000*%
%ADD17C,0.049370*%
%ADD18C,0.088000*%
%ADD19C,0.175354*%
%ADD20R,0.092000X0.092000*%
%LNMASK0*%
G90*
G70*
G54D10*
X15610Y4410D03*
X15564Y4410D03*
X3756Y4409D03*
X3802Y4409D03*
X9684Y4387D03*
X9684Y4433D03*
G54D11*
X7644Y1069D03*
X6705Y1069D03*
G54D12*
X7642Y469D03*
X6705Y469D03*
G54D11*
X18480Y649D03*
X18481Y1588D03*
G54D12*
X19081Y1585D03*
X19081Y649D03*
G54D13*
X10115Y3094D03*
X10365Y3193D03*
G54D14*
X10265Y2994D03*
G54D15*
X10065Y2994D03*
X10465Y2994D03*
G54D13*
X3365Y3094D03*
X3615Y3193D03*
G54D14*
X3515Y2994D03*
G54D15*
X3315Y2994D03*
X3715Y2994D03*
G54D13*
X7114Y3094D03*
X7364Y3193D03*
G54D14*
X7264Y2994D03*
G54D15*
X7064Y2994D03*
X7464Y2994D03*
G54D13*
X5614Y3094D03*
X5864Y3193D03*
G54D14*
X5764Y2994D03*
G54D15*
X5564Y2994D03*
X5964Y2994D03*
G54D13*
X12554Y3094D03*
X12804Y3193D03*
G54D14*
X12704Y2994D03*
G54D15*
X12504Y2994D03*
X12904Y2994D03*
G54D13*
X10865Y3094D03*
X11115Y3193D03*
G54D14*
X11015Y2994D03*
G54D15*
X10815Y2994D03*
X11215Y2994D03*
G54D13*
X4865Y3094D03*
X5115Y3193D03*
G54D14*
X5015Y2994D03*
G54D15*
X4815Y2994D03*
X5215Y2994D03*
G54D13*
X3554Y2344D03*
X3804Y2443D03*
G54D14*
X3704Y2244D03*
G54D15*
X3504Y2244D03*
X3904Y2244D03*
G54D13*
X11615Y3094D03*
X11865Y3193D03*
G54D14*
X11765Y2994D03*
G54D15*
X11565Y2994D03*
X11965Y2994D03*
G54D13*
X5803Y2344D03*
X6053Y2443D03*
G54D14*
X5953Y2244D03*
G54D15*
X5753Y2244D03*
X6152Y2244D03*
G54D13*
X2523Y2344D03*
X2772Y2443D03*
G54D14*
X2673Y2244D03*
G54D15*
X2473Y2244D03*
X2872Y2244D03*
G54D13*
X11054Y2344D03*
X11304Y2443D03*
G54D14*
X11204Y2244D03*
G54D15*
X11004Y2244D03*
X11404Y2244D03*
G54D13*
X8803Y2344D03*
X9053Y2443D03*
G54D14*
X8953Y2244D03*
G54D15*
X8753Y2244D03*
X9152Y2244D03*
G54D13*
X8053Y2344D03*
X8303Y2443D03*
G54D14*
X8203Y2244D03*
G54D15*
X8003Y2244D03*
X8402Y2244D03*
G54D13*
X6553Y2344D03*
X6803Y2443D03*
G54D14*
X6703Y2244D03*
G54D15*
X6503Y2244D03*
X6902Y2244D03*
G54D13*
X9743Y3844D03*
X9993Y3944D03*
G54D14*
X9893Y3744D03*
G54D15*
X9693Y3744D03*
X10092Y3744D03*
G54D13*
X12743Y3844D03*
X12993Y3944D03*
G54D14*
X12893Y3744D03*
G54D15*
X12693Y3744D03*
X13093Y3744D03*
G54D13*
X5992Y3844D03*
X6242Y3944D03*
G54D14*
X6142Y3744D03*
G54D15*
X5942Y3744D03*
X6341Y3744D03*
G54D13*
X9365Y3094D03*
X9615Y3193D03*
G54D14*
X9515Y2994D03*
G54D15*
X9315Y2994D03*
X9715Y2994D03*
G54D13*
X7492Y3844D03*
X7742Y3944D03*
G54D14*
X7642Y3744D03*
G54D15*
X7442Y3744D03*
X7841Y3744D03*
G54D13*
X8242Y3844D03*
X8492Y3944D03*
G54D14*
X8392Y3744D03*
G54D15*
X8192Y3744D03*
X8591Y3744D03*
G54D13*
X8992Y3844D03*
X9242Y3944D03*
G54D14*
X9142Y3744D03*
G54D15*
X8942Y3744D03*
X9341Y3744D03*
G54D13*
X6742Y3844D03*
X6992Y3944D03*
G54D14*
X6892Y3744D03*
G54D15*
X6692Y3744D03*
X7091Y3744D03*
G54D13*
X11993Y3844D03*
X12243Y3944D03*
G54D14*
X12143Y3744D03*
G54D15*
X11943Y3744D03*
X12343Y3744D03*
G54D13*
X7864Y3094D03*
X8114Y3193D03*
G54D14*
X8014Y2994D03*
G54D15*
X7814Y2994D03*
X8214Y2994D03*
G54D13*
X2429Y3094D03*
X2679Y3193D03*
G54D14*
X2579Y2994D03*
G54D15*
X2379Y2994D03*
X2779Y2994D03*
G54D13*
X10493Y3844D03*
X10743Y3944D03*
G54D14*
X10643Y3744D03*
G54D15*
X10443Y3744D03*
X10843Y3744D03*
G54D13*
X4115Y3094D03*
X4365Y3193D03*
G54D14*
X4265Y2994D03*
G54D15*
X4065Y2994D03*
X4465Y2994D03*
G54D13*
X8614Y3094D03*
X8864Y3193D03*
G54D14*
X8764Y2994D03*
G54D15*
X8564Y2994D03*
X8964Y2994D03*
G54D13*
X11243Y3844D03*
X11493Y3944D03*
G54D14*
X11393Y3744D03*
G54D15*
X11193Y3744D03*
X11593Y3744D03*
G54D13*
X6364Y3094D03*
X6614Y3193D03*
G54D14*
X6514Y2994D03*
G54D15*
X6314Y2994D03*
X6714Y2994D03*
G54D13*
X9554Y2344D03*
X9804Y2443D03*
G54D14*
X9704Y2244D03*
G54D15*
X9504Y2244D03*
X9904Y2244D03*
G54D13*
X6925Y1594D03*
X7175Y1693D03*
G54D14*
X7075Y1494D03*
G54D15*
X6875Y1494D03*
X7275Y1494D03*
G54D13*
X9645Y844D03*
X9895Y944D03*
G54D14*
X9795Y744D03*
G54D15*
X9595Y744D03*
X9995Y744D03*
G54D13*
X4493Y844D03*
X4743Y944D03*
G54D14*
X4643Y744D03*
G54D15*
X4443Y744D03*
X4842Y744D03*
G54D13*
X4304Y2344D03*
X4554Y2443D03*
G54D14*
X4454Y2244D03*
G54D15*
X4254Y2244D03*
X4654Y2244D03*
G54D13*
X3743Y844D03*
X3993Y944D03*
G54D14*
X3893Y744D03*
G54D15*
X3693Y744D03*
X4092Y744D03*
G54D13*
X8425Y1594D03*
X8675Y1693D03*
G54D14*
X8575Y1494D03*
G54D15*
X8375Y1494D03*
X8775Y1494D03*
G54D13*
X5425Y1594D03*
X5675Y1693D03*
G54D14*
X5575Y1494D03*
G54D15*
X5375Y1494D03*
X5775Y1494D03*
G54D13*
X2993Y844D03*
X3243Y944D03*
G54D14*
X3143Y744D03*
G54D15*
X2943Y744D03*
X3342Y744D03*
G54D13*
X10493Y844D03*
X10743Y944D03*
G54D14*
X10643Y744D03*
G54D15*
X10443Y744D03*
X10843Y744D03*
G54D13*
X8615Y844D03*
X8865Y944D03*
G54D14*
X8765Y744D03*
G54D15*
X8565Y744D03*
X8965Y744D03*
G54D13*
X5428Y844D03*
X5677Y944D03*
G54D14*
X5578Y744D03*
G54D15*
X5378Y744D03*
X5777Y744D03*
G54D13*
X11993Y844D03*
X12243Y944D03*
G54D14*
X12143Y744D03*
G54D15*
X11943Y744D03*
X12343Y744D03*
G54D13*
X11243Y844D03*
X11493Y944D03*
G54D14*
X11393Y744D03*
G54D15*
X11193Y744D03*
X11593Y744D03*
G54D13*
X2243Y844D03*
X2493Y944D03*
G54D14*
X2393Y744D03*
G54D15*
X2193Y744D03*
X2592Y744D03*
G54D13*
X12743Y844D03*
X12993Y944D03*
G54D14*
X12893Y744D03*
G54D15*
X12693Y744D03*
X13093Y744D03*
G54D13*
X7022Y844D03*
X7272Y944D03*
G54D14*
X7172Y744D03*
G54D15*
X6972Y744D03*
X7371Y744D03*
G54D13*
X9177Y1594D03*
X9426Y1693D03*
G54D14*
X9326Y1494D03*
G54D15*
X9126Y1494D03*
X9526Y1494D03*
G54D13*
X4493Y3844D03*
X4743Y3944D03*
G54D14*
X4643Y3744D03*
G54D15*
X4443Y3744D03*
X4842Y3744D03*
G54D13*
X11804Y2344D03*
X12054Y2443D03*
G54D14*
X11954Y2244D03*
G54D15*
X11754Y2244D03*
X12154Y2244D03*
G54D13*
X11427Y1594D03*
X11676Y1693D03*
G54D14*
X11576Y1494D03*
G54D15*
X11376Y1494D03*
X11776Y1494D03*
G54D13*
X5054Y2344D03*
X5304Y2443D03*
G54D14*
X5204Y2244D03*
G54D15*
X5004Y2244D03*
X5404Y2244D03*
G54D13*
X12645Y2344D03*
X12895Y2443D03*
G54D14*
X12795Y2244D03*
G54D15*
X12595Y2244D03*
X12995Y2244D03*
G54D13*
X7303Y2344D03*
X7553Y2443D03*
G54D14*
X7453Y2244D03*
G54D15*
X7253Y2244D03*
X7652Y2244D03*
G54D13*
X10304Y2344D03*
X10554Y2443D03*
G54D14*
X10454Y2244D03*
G54D15*
X10254Y2244D03*
X10654Y2244D03*
G54D13*
X9927Y1594D03*
X10176Y1693D03*
G54D14*
X10076Y1494D03*
G54D15*
X9876Y1494D03*
X10276Y1494D03*
G54D13*
X4677Y1594D03*
X4926Y1693D03*
G54D14*
X4826Y1494D03*
G54D15*
X4626Y1494D03*
X5026Y1494D03*
G54D13*
X7675Y1594D03*
X7925Y1693D03*
G54D14*
X7825Y1494D03*
G54D15*
X7625Y1494D03*
X8025Y1494D03*
G54D13*
X6175Y1594D03*
X6425Y1693D03*
G54D14*
X6325Y1494D03*
G54D15*
X6125Y1494D03*
X6525Y1494D03*
G54D13*
X3927Y1594D03*
X4176Y1693D03*
G54D14*
X4076Y1494D03*
G54D15*
X3876Y1494D03*
X4276Y1494D03*
G54D13*
X2334Y1594D03*
X2583Y1693D03*
G54D14*
X2484Y1494D03*
G54D15*
X2284Y1494D03*
X2683Y1494D03*
G54D13*
X12459Y1594D03*
X12709Y1693D03*
G54D14*
X12609Y1494D03*
G54D15*
X12409Y1494D03*
X12809Y1494D03*
G54D13*
X10677Y1594D03*
X10926Y1693D03*
G54D14*
X10826Y1494D03*
G54D15*
X10626Y1494D03*
X11026Y1494D03*
G54D13*
X3177Y1594D03*
X3426Y1693D03*
G54D14*
X3326Y1494D03*
G54D15*
X3126Y1494D03*
X3526Y1494D03*
G54D13*
X16406Y845D03*
X16655Y945D03*
G54D14*
X16555Y745D03*
G54D15*
X16355Y745D03*
X16755Y745D03*
G54D13*
X410Y3844D03*
X659Y3944D03*
G54D14*
X560Y3744D03*
G54D15*
X360Y3744D03*
X759Y3744D03*
G54D13*
X17155Y5304D03*
X17404Y5404D03*
G54D14*
X17305Y5204D03*
G54D15*
X17105Y5204D03*
X17504Y5204D03*
G54D13*
X410Y844D03*
X659Y944D03*
G54D14*
X560Y744D03*
G54D15*
X360Y744D03*
X759Y744D03*
G54D13*
X17905Y5304D03*
X18154Y5404D03*
G54D14*
X18055Y5204D03*
G54D15*
X17855Y5204D03*
X18254Y5204D03*
G54D13*
X18655Y5304D03*
X18904Y5404D03*
G54D14*
X18805Y5204D03*
G54D15*
X18605Y5204D03*
X19004Y5204D03*
G54D13*
X15324Y5304D03*
X15573Y5404D03*
G54D14*
X15473Y5204D03*
G54D15*
X15273Y5204D03*
X15673Y5204D03*
G54D13*
X16406Y5304D03*
X16655Y5404D03*
G54D14*
X16556Y5204D03*
G54D15*
X16356Y5204D03*
X16755Y5204D03*
G54D13*
X1160Y3844D03*
X1409Y3944D03*
G54D14*
X1310Y3744D03*
G54D15*
X1110Y3744D03*
X1509Y3744D03*
G54D13*
X1160Y844D03*
X1409Y944D03*
G54D14*
X1310Y744D03*
G54D15*
X1110Y744D03*
X1509Y744D03*
G54D13*
X3743Y3844D03*
X3993Y3944D03*
G54D14*
X3893Y3744D03*
G54D15*
X3693Y3744D03*
X4092Y3744D03*
G54D13*
X1160Y3094D03*
X1409Y3194D03*
G54D14*
X1310Y2994D03*
G54D15*
X1110Y2994D03*
X1509Y2994D03*
G54D13*
X1160Y1594D03*
X1409Y1694D03*
G54D14*
X1310Y1494D03*
G54D15*
X1110Y1494D03*
X1509Y1494D03*
G54D13*
X410Y2344D03*
X659Y2444D03*
G54D14*
X560Y2244D03*
G54D15*
X360Y2244D03*
X759Y2244D03*
G54D13*
X410Y3094D03*
X659Y3194D03*
G54D14*
X560Y2994D03*
G54D15*
X360Y2994D03*
X759Y2994D03*
G54D13*
X1160Y2344D03*
X1409Y2444D03*
G54D14*
X1310Y2244D03*
G54D15*
X1110Y2244D03*
X1509Y2244D03*
G54D13*
X13824Y5304D03*
X14073Y5404D03*
G54D14*
X13973Y5204D03*
G54D15*
X13773Y5204D03*
X14173Y5204D03*
G54D13*
X5993Y5304D03*
X6243Y5404D03*
G54D14*
X6143Y5204D03*
G54D15*
X5943Y5204D03*
X6342Y5204D03*
G54D13*
X4493Y5304D03*
X4743Y5404D03*
G54D14*
X4643Y5204D03*
G54D15*
X4443Y5204D03*
X4842Y5204D03*
G54D13*
X14574Y5304D03*
X14823Y5404D03*
G54D14*
X14723Y5204D03*
G54D15*
X14523Y5204D03*
X14923Y5204D03*
G54D13*
X3743Y5304D03*
X3993Y5404D03*
G54D14*
X3893Y5204D03*
G54D15*
X3693Y5204D03*
X4092Y5204D03*
G54D13*
X1160Y5304D03*
X1409Y5404D03*
G54D14*
X1310Y5204D03*
G54D15*
X1110Y5204D03*
X1509Y5204D03*
G54D13*
X410Y5304D03*
X659Y5404D03*
G54D14*
X560Y5204D03*
G54D15*
X360Y5204D03*
X759Y5204D03*
G54D13*
X2243Y5304D03*
X2493Y5404D03*
G54D14*
X2393Y5204D03*
G54D15*
X2193Y5204D03*
X2592Y5204D03*
G54D13*
X5243Y5304D03*
X5493Y5404D03*
G54D14*
X5393Y5204D03*
G54D15*
X5193Y5204D03*
X5592Y5204D03*
G54D13*
X11991Y5304D03*
X12241Y5404D03*
G54D14*
X12141Y5204D03*
G54D15*
X11941Y5204D03*
X12341Y5204D03*
G54D13*
X11241Y5304D03*
X11491Y5404D03*
G54D14*
X11391Y5204D03*
G54D15*
X11191Y5204D03*
X11591Y5204D03*
G54D13*
X7867Y5304D03*
X8116Y5404D03*
G54D14*
X8016Y5204D03*
G54D15*
X7816Y5204D03*
X8216Y5204D03*
G54D13*
X12741Y5304D03*
X12991Y5404D03*
G54D14*
X12891Y5204D03*
G54D15*
X12691Y5204D03*
X13091Y5204D03*
G54D13*
X10492Y5304D03*
X10742Y5404D03*
G54D14*
X10642Y5204D03*
G54D15*
X10442Y5204D03*
X10842Y5204D03*
G54D13*
X7118Y5304D03*
X7367Y5404D03*
G54D14*
X7268Y5204D03*
G54D15*
X7068Y5204D03*
X7467Y5204D03*
G54D13*
X8618Y5304D03*
X8867Y5404D03*
G54D14*
X8768Y5204D03*
G54D15*
X8568Y5204D03*
X8967Y5204D03*
G54D13*
X9367Y5304D03*
X9616Y5404D03*
G54D14*
X9516Y5204D03*
G54D15*
X9316Y5204D03*
X9716Y5204D03*
G54D13*
X410Y1594D03*
X659Y1694D03*
G54D14*
X560Y1494D03*
G54D15*
X360Y1494D03*
X759Y1494D03*
G54D13*
X17155Y1595D03*
X17404Y1695D03*
G54D14*
X17305Y1495D03*
G54D15*
X17105Y1495D03*
X17504Y1495D03*
G54D13*
X17905Y1595D03*
X18154Y1695D03*
G54D14*
X18055Y1495D03*
G54D15*
X17855Y1495D03*
X18254Y1495D03*
G54D13*
X17905Y3095D03*
X18154Y3195D03*
G54D14*
X18055Y2995D03*
G54D15*
X17855Y2995D03*
X18254Y2995D03*
G54D13*
X17905Y2345D03*
X18154Y2445D03*
G54D14*
X18055Y2245D03*
G54D15*
X17855Y2245D03*
X18254Y2245D03*
G54D13*
X13824Y3844D03*
X14073Y3944D03*
G54D14*
X13973Y3744D03*
G54D15*
X13773Y3744D03*
X14173Y3744D03*
G54D13*
X17155Y3095D03*
X17404Y3195D03*
G54D14*
X17305Y2995D03*
G54D15*
X17105Y2995D03*
X17504Y2995D03*
G54D13*
X16406Y1595D03*
X16655Y1695D03*
G54D14*
X16555Y1495D03*
G54D15*
X16355Y1495D03*
X16755Y1495D03*
G54D13*
X18655Y2345D03*
X18904Y2445D03*
G54D14*
X18805Y2245D03*
G54D15*
X18605Y2245D03*
X19004Y2245D03*
G54D13*
X2243Y3844D03*
X2493Y3944D03*
G54D14*
X2393Y3744D03*
G54D15*
X2193Y3744D03*
X2592Y3744D03*
G54D13*
X2993Y3844D03*
X3243Y3944D03*
G54D14*
X3143Y3744D03*
G54D15*
X2943Y3744D03*
X3342Y3744D03*
G54D13*
X17155Y2345D03*
X17404Y2445D03*
G54D14*
X17305Y2245D03*
G54D15*
X17105Y2245D03*
X17504Y2245D03*
G54D13*
X5243Y3844D03*
X5493Y3944D03*
G54D14*
X5393Y3744D03*
G54D15*
X5193Y3744D03*
X5592Y3744D03*
G54D13*
X17155Y845D03*
X17404Y945D03*
G54D14*
X17305Y745D03*
G54D15*
X17105Y745D03*
X17504Y745D03*
G54D13*
X16406Y2345D03*
X16655Y2445D03*
G54D14*
X16555Y2245D03*
G54D15*
X16355Y2245D03*
X16755Y2245D03*
G54D13*
X17905Y845D03*
X18154Y945D03*
G54D14*
X18055Y745D03*
G54D15*
X17855Y745D03*
X18254Y745D03*
G54D13*
X18655Y1221D03*
X18904Y1320D03*
G54D14*
X18805Y1121D03*
G54D15*
X18605Y1121D03*
X19004Y1121D03*
G54D13*
X14574Y1595D03*
X14823Y1695D03*
G54D14*
X14723Y1495D03*
G54D15*
X14523Y1495D03*
X14923Y1495D03*
G54D13*
X18655Y3095D03*
X18904Y3195D03*
G54D14*
X18805Y2995D03*
G54D15*
X18605Y2995D03*
X19004Y2995D03*
G54D13*
X15324Y844D03*
X15573Y944D03*
G54D14*
X15473Y744D03*
G54D15*
X15273Y744D03*
X15673Y744D03*
G54D13*
X13824Y3095D03*
X14073Y3195D03*
G54D14*
X13973Y2995D03*
G54D15*
X13773Y2995D03*
X14173Y2995D03*
G54D13*
X14574Y3844D03*
X14823Y3944D03*
G54D14*
X14723Y3744D03*
G54D15*
X14523Y3744D03*
X14923Y3744D03*
G54D13*
X15324Y3844D03*
X15573Y3944D03*
G54D14*
X15473Y3744D03*
G54D15*
X15273Y3744D03*
X15673Y3744D03*
G54D13*
X15324Y3095D03*
X15573Y3195D03*
G54D14*
X15473Y2995D03*
G54D15*
X15273Y2995D03*
X15673Y2995D03*
G54D13*
X14574Y3095D03*
X14823Y3195D03*
G54D14*
X14723Y2995D03*
G54D15*
X14523Y2995D03*
X14923Y2995D03*
G54D13*
X16406Y3095D03*
X16655Y3195D03*
G54D14*
X16555Y2995D03*
G54D15*
X16355Y2995D03*
X16755Y2995D03*
G54D13*
X13824Y844D03*
X14073Y944D03*
G54D14*
X13973Y744D03*
G54D15*
X13773Y744D03*
X14173Y744D03*
G54D13*
X18655Y3845D03*
X18904Y3945D03*
G54D14*
X18805Y3745D03*
G54D15*
X18605Y3745D03*
X19004Y3745D03*
G54D13*
X17905Y3845D03*
X18154Y3945D03*
G54D14*
X18055Y3745D03*
G54D15*
X17855Y3745D03*
X18254Y3745D03*
G54D13*
X16406Y3845D03*
X16655Y3945D03*
G54D14*
X16555Y3745D03*
G54D15*
X16355Y3745D03*
X16755Y3745D03*
G54D13*
X14574Y844D03*
X14823Y944D03*
G54D14*
X14723Y744D03*
G54D15*
X14523Y744D03*
X14923Y744D03*
G54D13*
X17155Y3845D03*
X17404Y3945D03*
G54D14*
X17305Y3745D03*
G54D15*
X17105Y3745D03*
X17504Y3745D03*
G54D16*
X707Y4335D03*
X409Y4335D03*
X707Y3368D03*
X409Y3368D03*
X1459Y4339D03*
X1161Y4339D03*
X1459Y3373D03*
X1161Y3373D03*
X574Y4490D03*
X276Y4490D03*
X10416Y3371D03*
X10118Y3371D03*
X11352Y2621D03*
X11054Y2621D03*
X9663Y3371D03*
X9365Y3371D03*
X8163Y3371D03*
X7865Y3371D03*
X7413Y3371D03*
X7115Y3371D03*
X8913Y3371D03*
X8615Y3371D03*
X11163Y3371D03*
X10865Y3371D03*
X14727Y4344D03*
X14429Y4344D03*
X15254Y4344D03*
X14956Y4344D03*
X11913Y3371D03*
X11615Y3371D03*
X15621Y3371D03*
X15323Y3371D03*
X14121Y3371D03*
X13823Y3371D03*
X12852Y3371D03*
X12554Y3371D03*
X14871Y3371D03*
X14573Y3371D03*
X6663Y3371D03*
X6365Y3371D03*
X6852Y2621D03*
X6554Y2621D03*
X7602Y2621D03*
X7304Y2621D03*
X5913Y3371D03*
X5615Y3371D03*
X8352Y2621D03*
X8054Y2621D03*
X9852Y2621D03*
X9554Y2621D03*
X10602Y2621D03*
X10304Y2621D03*
X9102Y2621D03*
X8804Y2621D03*
X6102Y2621D03*
X5804Y2621D03*
X5163Y3371D03*
X4865Y3371D03*
X4413Y3369D03*
X4115Y3369D03*
X5352Y2621D03*
X5054Y2621D03*
X3663Y3371D03*
X3365Y3371D03*
X3852Y2621D03*
X3554Y2621D03*
X4602Y2621D03*
X4304Y2621D03*
X2821Y2621D03*
X2523Y2621D03*
X13977Y4344D03*
X13679Y4344D03*
X12289Y4356D03*
X11991Y4356D03*
X10456Y4353D03*
X10158Y4353D03*
X13975Y4492D03*
X13677Y4492D03*
X11539Y4356D03*
X11241Y4356D03*
X12143Y4508D03*
X11845Y4508D03*
X11393Y4508D03*
X11095Y4508D03*
X12896Y4508D03*
X12598Y4508D03*
X13042Y4356D03*
X12744Y4356D03*
X10304Y4505D03*
X10006Y4505D03*
X9290Y4347D03*
X8992Y4347D03*
X5793Y4347D03*
X5495Y4347D03*
X8796Y4355D03*
X8498Y4355D03*
X7293Y4351D03*
X6995Y4351D03*
X6541Y4351D03*
X6243Y4351D03*
X8049Y4351D03*
X7751Y4351D03*
X9290Y4499D03*
X8992Y4499D03*
X4449Y4344D03*
X4151Y4344D03*
X3290Y4340D03*
X2992Y4340D03*
X8794Y4499D03*
X8496Y4499D03*
X2541Y4344D03*
X2243Y4344D03*
X15253Y4492D03*
X14955Y4492D03*
X14727Y4492D03*
X14429Y4492D03*
X2401Y4495D03*
X2103Y4495D03*
X3286Y4499D03*
X2988Y4499D03*
X8049Y4495D03*
X7751Y4495D03*
X7293Y4495D03*
X6995Y4495D03*
X5134Y4351D03*
X4836Y4351D03*
X6756Y4503D03*
X6458Y4503D03*
X5267Y4492D03*
X4969Y4492D03*
X4645Y4499D03*
X4347Y4499D03*
X6012Y4499D03*
X5714Y4499D03*
X2727Y3371D03*
X2429Y3371D03*
X15621Y1518D03*
X15323Y1518D03*
X14871Y1121D03*
X14573Y1121D03*
X16704Y2621D03*
X16406Y2621D03*
X12102Y2621D03*
X11804Y2621D03*
X12291Y1121D03*
X11993Y1121D03*
X11541Y1121D03*
X11243Y1121D03*
X13041Y1121D03*
X12743Y1121D03*
X14871Y2074D03*
X14573Y2074D03*
X16702Y1871D03*
X16404Y1871D03*
X17452Y1871D03*
X17154Y1871D03*
X16704Y1121D03*
X16406Y1121D03*
X18202Y1871D03*
X17904Y1871D03*
X18202Y1121D03*
X17904Y1121D03*
X17452Y1121D03*
X17154Y1121D03*
X18952Y1874D03*
X18654Y1874D03*
X10791Y1121D03*
X10493Y1121D03*
X707Y1113D03*
X409Y1113D03*
X1459Y1873D03*
X1161Y1873D03*
X9943Y1121D03*
X9645Y1121D03*
X707Y1868D03*
X409Y1868D03*
X707Y2613D03*
X409Y2613D03*
X1325Y4495D03*
X1027Y4495D03*
X1459Y2617D03*
X1161Y2617D03*
X1459Y1117D03*
X1161Y1117D03*
X8913Y1121D03*
X8615Y1121D03*
X7321Y1121D03*
X7023Y1121D03*
X2541Y1121D03*
X2243Y1121D03*
X5727Y1121D03*
X5429Y1121D03*
X4041Y1121D03*
X3743Y1121D03*
X3291Y1121D03*
X2993Y1121D03*
X4791Y1121D03*
X4493Y1121D03*
X14121Y1521D03*
X13823Y1521D03*
X7224Y1871D03*
X6926Y1871D03*
X3474Y1871D03*
X3176Y1871D03*
X6474Y1871D03*
X6176Y1871D03*
X4974Y1871D03*
X4676Y1871D03*
X4224Y1871D03*
X3926Y1871D03*
X5724Y1871D03*
X5426Y1871D03*
X7974Y1871D03*
X7676Y1871D03*
X12943Y2621D03*
X12645Y2621D03*
X12757Y1871D03*
X12459Y1871D03*
X8724Y1871D03*
X8426Y1871D03*
X11724Y1871D03*
X11426Y1871D03*
X10224Y1871D03*
X9926Y1871D03*
X9474Y1871D03*
X9176Y1871D03*
X17452Y2621D03*
X17154Y2621D03*
X10974Y1871D03*
X10676Y1871D03*
X18952Y3371D03*
X18654Y3371D03*
X18204Y3371D03*
X17906Y3371D03*
X16708Y4355D03*
X16410Y4355D03*
X17452Y3371D03*
X17154Y3371D03*
X18952Y2621D03*
X18654Y2621D03*
X18202Y2621D03*
X17904Y2621D03*
X16704Y3371D03*
X16406Y3371D03*
X2632Y1871D03*
X2334Y1871D03*
X18807Y4496D03*
X18509Y4496D03*
X18057Y4496D03*
X17759Y4496D03*
X17307Y4496D03*
X17009Y4496D03*
X17455Y4355D03*
X17157Y4355D03*
X16560Y4496D03*
X16262Y4496D03*
X18958Y4355D03*
X18660Y4355D03*
X18205Y4355D03*
X17907Y4355D03*
G54D17*
X933Y2614D03*
X1705Y2616D03*
X3022Y2621D03*
X19105Y2621D03*
X18339Y2621D03*
X17633Y2621D03*
X16900Y2621D03*
X16194Y2077D03*
X5922Y1870D03*
X6633Y1870D03*
X7500Y1871D03*
X8233Y1871D03*
X9102Y3371D03*
X10637Y3373D03*
X13183Y3371D03*
X11200Y1871D03*
X12311Y2621D03*
X15811Y3374D03*
X10100Y2443D03*
G54D18*
X3872Y5833D03*
X3972Y5833D03*
X4072Y5833D03*
X4172Y5833D03*
X4272Y5833D03*
X4372Y5833D03*
X4472Y5833D03*
X4572Y5833D03*
X4672Y5833D03*
X4772Y5833D03*
X4872Y5833D03*
X4972Y5833D03*
X5172Y5833D03*
X5272Y5833D03*
X5372Y5833D03*
X5472Y5833D03*
X5572Y5833D03*
X5672Y5833D03*
X5772Y5833D03*
X5872Y5833D03*
X5972Y5833D03*
X6072Y5833D03*
X6172Y5833D03*
G54D19*
X8178Y5610D03*
X3728Y5610D03*
G54D20*
X708Y4335D03*
X708Y3368D03*
X1460Y4339D03*
X1460Y3373D03*
X575Y4490D03*
X10417Y3371D03*
X11353Y2621D03*
X9664Y3371D03*
X8164Y3371D03*
X7414Y3371D03*
X8914Y3371D03*
X11164Y3371D03*
X14728Y4344D03*
X15255Y4344D03*
X11914Y3371D03*
X15622Y3371D03*
X14122Y3371D03*
X12853Y3371D03*
X14872Y3371D03*
X6664Y3371D03*
X6853Y2621D03*
X7603Y2621D03*
X5914Y3371D03*
X8353Y2621D03*
X9853Y2621D03*
X10603Y2621D03*
X9103Y2621D03*
X6103Y2621D03*
X5164Y3371D03*
X4414Y3369D03*
X5353Y2621D03*
X3664Y3371D03*
X3853Y2621D03*
X4603Y2621D03*
X2822Y2621D03*
X13978Y4344D03*
X12290Y4356D03*
X10457Y4353D03*
X13976Y4492D03*
X11540Y4356D03*
X12144Y4508D03*
X11394Y4508D03*
X12897Y4508D03*
X13043Y4356D03*
X10305Y4505D03*
X9291Y4347D03*
X5794Y4347D03*
X8797Y4355D03*
X7294Y4351D03*
X6542Y4351D03*
X8050Y4351D03*
X9291Y4499D03*
X4450Y4344D03*
X3291Y4340D03*
X8795Y4499D03*
X2542Y4344D03*
X15254Y4492D03*
X14728Y4492D03*
X2402Y4495D03*
X3287Y4499D03*
X8050Y4495D03*
X7294Y4495D03*
X5135Y4351D03*
X6757Y4503D03*
X5268Y4492D03*
X4646Y4499D03*
X6013Y4499D03*
X2728Y3371D03*
X15622Y1518D03*
X14872Y1121D03*
X16705Y2621D03*
X12103Y2621D03*
X12292Y1121D03*
X11542Y1121D03*
X13042Y1121D03*
X14872Y2074D03*
X16703Y1871D03*
X17453Y1871D03*
X16705Y1121D03*
X18203Y1871D03*
X18203Y1121D03*
X17453Y1121D03*
X18953Y1874D03*
X10792Y1121D03*
X708Y1113D03*
X1460Y1873D03*
X9944Y1121D03*
X708Y1868D03*
X708Y2613D03*
X1326Y4495D03*
X1460Y2617D03*
X1460Y1117D03*
X8914Y1121D03*
X7322Y1121D03*
X2542Y1121D03*
X5728Y1121D03*
X4042Y1121D03*
X3292Y1121D03*
X4792Y1121D03*
X14122Y1521D03*
X7225Y1871D03*
X3475Y1871D03*
X6475Y1871D03*
X4975Y1871D03*
X4225Y1871D03*
X5725Y1871D03*
X7975Y1871D03*
X12944Y2621D03*
X12758Y1871D03*
X8725Y1871D03*
X11725Y1871D03*
X10225Y1871D03*
X9475Y1871D03*
X17453Y2621D03*
X10975Y1871D03*
X18953Y3371D03*
X18205Y3371D03*
X16709Y4355D03*
X17453Y3371D03*
X18953Y2621D03*
X18203Y2621D03*
X16705Y3371D03*
X2633Y1871D03*
X18808Y4496D03*
X18058Y4496D03*
X17308Y4496D03*
X17456Y4355D03*
X16561Y4496D03*
X18959Y4355D03*
X18206Y4355D03*
G04 End of Mask0*
M02*