; NON-PLATED HOLES START AT T1
; THROUGH (PLATED) HOLES START AT T100
M48
INCH
T100C0.025000
T101C0.038000
%
T100
X014272Y001594
X018810Y001594
X022554Y001594
X007560Y001594
X023942Y001594
X024730Y001594
X020980Y001594
X003807Y001591
X029272Y001594
X011306Y001594
X028486Y001594
X017236Y001594
X010518Y001594
X030060Y001594
X018022Y001594
X003019Y001591
X001445Y001591
X021766Y001594
X027698Y001594
X015060Y001594
X009732Y001594
X013486Y001594
X020192Y001594
X025516Y001594
X008944Y001594
X005198Y001594
X005986Y001594
X002233Y001591
X016448Y001594
X026304Y001594
X006772Y001594
X012698Y001594
T101
X000583Y001566
X030916Y001566
X030916Y000566
X030916Y002566
X000583Y002566
X000583Y000566
T00
M30
