G04 MADE WITH FRITZING*
G04 WWW.FRITZING.ORG*
G04 DOUBLE SIDED*
G04 HOLES PLATED*
G04 CONTOUR ON CENTER OF CONTOUR VECTOR*
%ASAXBY*%
%FSLAX23Y23*%
%MOIN*%
%OFA0B0*%
%SFA1.0B1.0*%
%ADD10R,3.149610X0.314961X3.133610X0.298961*%
%ADD11C,0.008000*%
%ADD12R,0.001000X0.001000*%
%LNSILK0*%
G90*
G70*
G54D11*
X4Y311D02*
X3146Y311D01*
X3146Y4D01*
X4Y4D01*
X4Y311D01*
D02*
G54D12*
X280Y295D02*
X282Y295D01*
X313Y295D02*
X325Y295D01*
X352Y295D02*
X394Y295D01*
X445Y295D02*
X466Y295D01*
X2683Y295D02*
X2684Y295D01*
X2716Y295D02*
X2728Y295D01*
X2755Y295D02*
X2796Y295D01*
X2847Y295D02*
X2869Y295D01*
X278Y294D02*
X284Y294D01*
X312Y294D02*
X325Y294D01*
X351Y294D02*
X396Y294D01*
X441Y294D02*
X468Y294D01*
X2681Y294D02*
X2686Y294D01*
X2715Y294D02*
X2728Y294D01*
X2753Y294D02*
X2798Y294D01*
X2844Y294D02*
X2871Y294D01*
X277Y293D02*
X284Y293D01*
X312Y293D02*
X325Y293D01*
X350Y293D02*
X396Y293D01*
X439Y293D02*
X469Y293D01*
X2680Y293D02*
X2687Y293D01*
X2715Y293D02*
X2728Y293D01*
X2752Y293D02*
X2799Y293D01*
X2842Y293D02*
X2871Y293D01*
X277Y292D02*
X285Y292D01*
X311Y292D02*
X325Y292D01*
X349Y292D02*
X397Y292D01*
X438Y292D02*
X469Y292D01*
X2679Y292D02*
X2688Y292D01*
X2714Y292D02*
X2728Y292D01*
X2752Y292D02*
X2800Y292D01*
X2841Y292D02*
X2872Y292D01*
X276Y291D02*
X285Y291D01*
X311Y291D02*
X325Y291D01*
X349Y291D02*
X397Y291D01*
X437Y291D02*
X470Y291D01*
X2679Y291D02*
X2688Y291D01*
X2714Y291D02*
X2728Y291D01*
X2751Y291D02*
X2800Y291D01*
X2840Y291D02*
X2872Y291D01*
X276Y290D02*
X285Y290D01*
X311Y290D02*
X325Y290D01*
X349Y290D02*
X397Y290D01*
X436Y290D02*
X470Y290D01*
X2679Y290D02*
X2688Y290D01*
X2713Y290D02*
X2728Y290D01*
X2751Y290D02*
X2800Y290D01*
X2838Y290D02*
X2872Y290D01*
X276Y289D02*
X285Y289D01*
X310Y289D02*
X325Y289D01*
X349Y289D02*
X397Y289D01*
X435Y289D02*
X469Y289D01*
X2679Y289D02*
X2688Y289D01*
X2713Y289D02*
X2728Y289D01*
X2752Y289D02*
X2800Y289D01*
X2838Y289D02*
X2872Y289D01*
X276Y288D02*
X285Y288D01*
X310Y288D02*
X325Y288D01*
X349Y288D02*
X397Y288D01*
X434Y288D02*
X469Y288D01*
X2679Y288D02*
X2688Y288D01*
X2712Y288D02*
X2728Y288D01*
X2752Y288D02*
X2800Y288D01*
X2837Y288D02*
X2872Y288D01*
X276Y287D02*
X285Y287D01*
X309Y287D02*
X325Y287D01*
X350Y287D02*
X396Y287D01*
X434Y287D02*
X468Y287D01*
X2679Y287D02*
X2688Y287D01*
X2712Y287D02*
X2728Y287D01*
X2753Y287D02*
X2799Y287D01*
X2836Y287D02*
X2871Y287D01*
X276Y286D02*
X285Y286D01*
X309Y286D02*
X325Y286D01*
X351Y286D02*
X395Y286D01*
X433Y286D02*
X467Y286D01*
X2679Y286D02*
X2688Y286D01*
X2711Y286D02*
X2728Y286D01*
X2754Y286D02*
X2798Y286D01*
X2836Y286D02*
X2870Y286D01*
X276Y285D02*
X285Y285D01*
X308Y285D02*
X325Y285D01*
X368Y285D02*
X378Y285D01*
X433Y285D02*
X445Y285D01*
X450Y285D02*
X460Y285D01*
X2679Y285D02*
X2688Y285D01*
X2711Y285D02*
X2728Y285D01*
X2771Y285D02*
X2781Y285D01*
X2835Y285D02*
X2848Y285D01*
X2853Y285D02*
X2863Y285D01*
X276Y284D02*
X285Y284D01*
X308Y284D02*
X325Y284D01*
X369Y284D02*
X378Y284D01*
X432Y284D02*
X443Y284D01*
X451Y284D02*
X460Y284D01*
X2679Y284D02*
X2688Y284D01*
X2711Y284D02*
X2728Y284D01*
X2771Y284D02*
X2780Y284D01*
X2835Y284D02*
X2846Y284D01*
X2853Y284D02*
X2863Y284D01*
X276Y283D02*
X285Y283D01*
X307Y283D02*
X325Y283D01*
X369Y283D02*
X378Y283D01*
X432Y283D02*
X442Y283D01*
X451Y283D02*
X460Y283D01*
X2679Y283D02*
X2688Y283D01*
X2710Y283D02*
X2728Y283D01*
X2771Y283D02*
X2780Y283D01*
X2834Y283D02*
X2845Y283D01*
X2853Y283D02*
X2863Y283D01*
X127Y282D02*
X129Y282D01*
X276Y282D02*
X285Y282D01*
X307Y282D02*
X325Y282D01*
X369Y282D02*
X378Y282D01*
X431Y282D02*
X442Y282D01*
X451Y282D02*
X460Y282D01*
X2679Y282D02*
X2688Y282D01*
X2710Y282D02*
X2728Y282D01*
X2771Y282D02*
X2780Y282D01*
X2834Y282D02*
X2844Y282D01*
X2853Y282D02*
X2863Y282D01*
X126Y281D02*
X131Y281D01*
X276Y281D02*
X285Y281D01*
X307Y281D02*
X325Y281D01*
X369Y281D02*
X378Y281D01*
X431Y281D02*
X441Y281D01*
X451Y281D02*
X460Y281D01*
X2679Y281D02*
X2688Y281D01*
X2709Y281D02*
X2728Y281D01*
X2771Y281D02*
X2780Y281D01*
X2833Y281D02*
X2844Y281D01*
X2853Y281D02*
X2863Y281D01*
X3017Y281D02*
X3018Y281D01*
X125Y280D02*
X132Y280D01*
X276Y280D02*
X285Y280D01*
X306Y280D02*
X325Y280D01*
X369Y280D02*
X378Y280D01*
X430Y280D02*
X440Y280D01*
X451Y280D02*
X460Y280D01*
X2679Y280D02*
X2688Y280D01*
X2709Y280D02*
X2728Y280D01*
X2771Y280D02*
X2780Y280D01*
X2833Y280D02*
X2843Y280D01*
X2853Y280D02*
X2863Y280D01*
X3015Y280D02*
X3020Y280D01*
X124Y279D02*
X133Y279D01*
X276Y279D02*
X285Y279D01*
X306Y279D02*
X325Y279D01*
X369Y279D02*
X378Y279D01*
X430Y279D02*
X440Y279D01*
X451Y279D02*
X460Y279D01*
X2679Y279D02*
X2688Y279D01*
X2708Y279D02*
X2728Y279D01*
X2771Y279D02*
X2780Y279D01*
X2832Y279D02*
X2843Y279D01*
X2853Y279D02*
X2863Y279D01*
X3014Y279D02*
X3021Y279D01*
X124Y278D02*
X133Y278D01*
X276Y278D02*
X285Y278D01*
X305Y278D02*
X325Y278D01*
X369Y278D02*
X378Y278D01*
X429Y278D02*
X439Y278D01*
X451Y278D02*
X460Y278D01*
X2679Y278D02*
X2688Y278D01*
X2708Y278D02*
X2728Y278D01*
X2771Y278D02*
X2780Y278D01*
X2832Y278D02*
X2842Y278D01*
X2853Y278D02*
X2863Y278D01*
X3014Y278D02*
X3022Y278D01*
X124Y277D02*
X133Y277D01*
X276Y277D02*
X285Y277D01*
X305Y277D02*
X325Y277D01*
X369Y277D02*
X378Y277D01*
X429Y277D02*
X439Y277D01*
X451Y277D02*
X460Y277D01*
X2679Y277D02*
X2688Y277D01*
X2708Y277D02*
X2728Y277D01*
X2771Y277D02*
X2780Y277D01*
X2831Y277D02*
X2842Y277D01*
X2853Y277D02*
X2863Y277D01*
X3013Y277D02*
X3022Y277D01*
X124Y276D02*
X133Y276D01*
X276Y276D02*
X285Y276D01*
X304Y276D02*
X314Y276D01*
X316Y276D02*
X325Y276D01*
X369Y276D02*
X378Y276D01*
X428Y276D02*
X438Y276D01*
X451Y276D02*
X460Y276D01*
X2679Y276D02*
X2688Y276D01*
X2707Y276D02*
X2717Y276D01*
X2719Y276D02*
X2728Y276D01*
X2771Y276D02*
X2780Y276D01*
X2831Y276D02*
X2841Y276D01*
X2853Y276D02*
X2863Y276D01*
X3013Y276D02*
X3022Y276D01*
X124Y275D02*
X133Y275D01*
X276Y275D02*
X285Y275D01*
X304Y275D02*
X314Y275D01*
X316Y275D02*
X325Y275D01*
X369Y275D02*
X378Y275D01*
X428Y275D02*
X438Y275D01*
X451Y275D02*
X460Y275D01*
X2679Y275D02*
X2688Y275D01*
X2707Y275D02*
X2717Y275D01*
X2719Y275D02*
X2728Y275D01*
X2771Y275D02*
X2780Y275D01*
X2830Y275D02*
X2841Y275D01*
X2853Y275D02*
X2863Y275D01*
X3013Y275D02*
X3022Y275D01*
X124Y274D02*
X133Y274D01*
X276Y274D02*
X285Y274D01*
X304Y274D02*
X314Y274D01*
X316Y274D02*
X325Y274D01*
X369Y274D02*
X378Y274D01*
X427Y274D02*
X437Y274D01*
X451Y274D02*
X460Y274D01*
X2679Y274D02*
X2688Y274D01*
X2706Y274D02*
X2716Y274D01*
X2719Y274D02*
X2728Y274D01*
X2771Y274D02*
X2780Y274D01*
X2830Y274D02*
X2840Y274D01*
X2853Y274D02*
X2863Y274D01*
X3013Y274D02*
X3022Y274D01*
X124Y273D02*
X133Y273D01*
X276Y273D02*
X285Y273D01*
X303Y273D02*
X313Y273D01*
X316Y273D02*
X325Y273D01*
X369Y273D02*
X378Y273D01*
X427Y273D02*
X437Y273D01*
X451Y273D02*
X460Y273D01*
X2679Y273D02*
X2688Y273D01*
X2706Y273D02*
X2716Y273D01*
X2719Y273D02*
X2728Y273D01*
X2771Y273D02*
X2780Y273D01*
X2829Y273D02*
X2840Y273D01*
X2853Y273D02*
X2863Y273D01*
X3013Y273D02*
X3022Y273D01*
X124Y272D02*
X133Y272D01*
X276Y272D02*
X285Y272D01*
X303Y272D02*
X313Y272D01*
X316Y272D02*
X325Y272D01*
X369Y272D02*
X378Y272D01*
X426Y272D02*
X436Y272D01*
X451Y272D02*
X460Y272D01*
X2679Y272D02*
X2688Y272D01*
X2705Y272D02*
X2715Y272D01*
X2719Y272D02*
X2728Y272D01*
X2771Y272D02*
X2780Y272D01*
X2829Y272D02*
X2839Y272D01*
X2853Y272D02*
X2863Y272D01*
X3013Y272D02*
X3022Y272D01*
X124Y271D02*
X133Y271D01*
X276Y271D02*
X285Y271D01*
X302Y271D02*
X312Y271D01*
X316Y271D02*
X325Y271D01*
X369Y271D02*
X378Y271D01*
X426Y271D02*
X436Y271D01*
X451Y271D02*
X460Y271D01*
X2679Y271D02*
X2688Y271D01*
X2705Y271D02*
X2715Y271D01*
X2719Y271D02*
X2728Y271D01*
X2771Y271D02*
X2780Y271D01*
X2828Y271D02*
X2839Y271D01*
X2853Y271D02*
X2863Y271D01*
X3013Y271D02*
X3022Y271D01*
X124Y270D02*
X133Y270D01*
X276Y270D02*
X285Y270D01*
X302Y270D02*
X312Y270D01*
X316Y270D02*
X325Y270D01*
X369Y270D02*
X378Y270D01*
X425Y270D02*
X435Y270D01*
X451Y270D02*
X460Y270D01*
X2679Y270D02*
X2688Y270D01*
X2704Y270D02*
X2715Y270D01*
X2719Y270D02*
X2728Y270D01*
X2771Y270D02*
X2780Y270D01*
X2828Y270D02*
X2838Y270D01*
X2853Y270D02*
X2863Y270D01*
X3013Y270D02*
X3022Y270D01*
X124Y269D02*
X133Y269D01*
X276Y269D02*
X285Y269D01*
X301Y269D02*
X311Y269D01*
X316Y269D02*
X325Y269D01*
X369Y269D02*
X378Y269D01*
X425Y269D02*
X435Y269D01*
X451Y269D02*
X460Y269D01*
X2679Y269D02*
X2688Y269D01*
X2704Y269D02*
X2714Y269D01*
X2719Y269D02*
X2728Y269D01*
X2771Y269D02*
X2780Y269D01*
X2827Y269D02*
X2838Y269D01*
X2853Y269D02*
X2863Y269D01*
X3013Y269D02*
X3022Y269D01*
X124Y268D02*
X133Y268D01*
X276Y268D02*
X285Y268D01*
X301Y268D02*
X311Y268D01*
X316Y268D02*
X325Y268D01*
X369Y268D02*
X378Y268D01*
X424Y268D02*
X434Y268D01*
X451Y268D02*
X460Y268D01*
X2679Y268D02*
X2688Y268D01*
X2704Y268D02*
X2714Y268D01*
X2719Y268D02*
X2728Y268D01*
X2771Y268D02*
X2780Y268D01*
X2827Y268D02*
X2837Y268D01*
X2853Y268D02*
X2863Y268D01*
X3013Y268D02*
X3022Y268D01*
X124Y267D02*
X133Y267D01*
X276Y267D02*
X285Y267D01*
X300Y267D02*
X311Y267D01*
X316Y267D02*
X325Y267D01*
X369Y267D02*
X378Y267D01*
X424Y267D02*
X434Y267D01*
X451Y267D02*
X460Y267D01*
X2679Y267D02*
X2688Y267D01*
X2703Y267D02*
X2713Y267D01*
X2719Y267D02*
X2728Y267D01*
X2771Y267D02*
X2780Y267D01*
X2826Y267D02*
X2837Y267D01*
X2853Y267D02*
X2863Y267D01*
X3013Y267D02*
X3022Y267D01*
X124Y266D02*
X133Y266D01*
X276Y266D02*
X285Y266D01*
X300Y266D02*
X310Y266D01*
X316Y266D02*
X325Y266D01*
X369Y266D02*
X378Y266D01*
X423Y266D02*
X433Y266D01*
X451Y266D02*
X460Y266D01*
X2679Y266D02*
X2688Y266D01*
X2703Y266D02*
X2713Y266D01*
X2719Y266D02*
X2728Y266D01*
X2771Y266D02*
X2780Y266D01*
X2826Y266D02*
X2836Y266D01*
X2853Y266D02*
X2863Y266D01*
X3013Y266D02*
X3022Y266D01*
X124Y265D02*
X133Y265D01*
X276Y265D02*
X285Y265D01*
X300Y265D02*
X310Y265D01*
X316Y265D02*
X325Y265D01*
X369Y265D02*
X378Y265D01*
X423Y265D02*
X433Y265D01*
X451Y265D02*
X460Y265D01*
X2679Y265D02*
X2688Y265D01*
X2702Y265D02*
X2712Y265D01*
X2719Y265D02*
X2728Y265D01*
X2771Y265D02*
X2780Y265D01*
X2825Y265D02*
X2836Y265D01*
X2853Y265D02*
X2863Y265D01*
X3013Y265D02*
X3022Y265D01*
X124Y264D02*
X133Y264D01*
X276Y264D02*
X285Y264D01*
X299Y264D02*
X309Y264D01*
X316Y264D02*
X325Y264D01*
X369Y264D02*
X378Y264D01*
X422Y264D02*
X432Y264D01*
X451Y264D02*
X460Y264D01*
X2679Y264D02*
X2688Y264D01*
X2702Y264D02*
X2712Y264D01*
X2719Y264D02*
X2728Y264D01*
X2771Y264D02*
X2780Y264D01*
X2825Y264D02*
X2835Y264D01*
X2853Y264D02*
X2863Y264D01*
X3013Y264D02*
X3022Y264D01*
X124Y263D02*
X133Y263D01*
X276Y263D02*
X285Y263D01*
X299Y263D02*
X309Y263D01*
X316Y263D02*
X325Y263D01*
X369Y263D02*
X378Y263D01*
X422Y263D02*
X432Y263D01*
X451Y263D02*
X460Y263D01*
X2679Y263D02*
X2688Y263D01*
X2701Y263D02*
X2711Y263D01*
X2719Y263D02*
X2728Y263D01*
X2771Y263D02*
X2780Y263D01*
X2825Y263D02*
X2835Y263D01*
X2853Y263D02*
X2863Y263D01*
X3013Y263D02*
X3022Y263D01*
X107Y262D02*
X150Y262D01*
X276Y262D02*
X285Y262D01*
X298Y262D02*
X308Y262D01*
X316Y262D02*
X325Y262D01*
X369Y262D02*
X378Y262D01*
X422Y262D02*
X431Y262D01*
X451Y262D02*
X460Y262D01*
X2679Y262D02*
X2688Y262D01*
X2701Y262D02*
X2711Y262D01*
X2719Y262D02*
X2728Y262D01*
X2771Y262D02*
X2780Y262D01*
X2824Y262D02*
X2834Y262D01*
X2853Y262D02*
X2863Y262D01*
X3013Y262D02*
X3022Y262D01*
X105Y261D02*
X151Y261D01*
X276Y261D02*
X285Y261D01*
X298Y261D02*
X308Y261D01*
X316Y261D02*
X325Y261D01*
X369Y261D02*
X378Y261D01*
X421Y261D02*
X431Y261D01*
X451Y261D02*
X460Y261D01*
X2679Y261D02*
X2688Y261D01*
X2700Y261D02*
X2711Y261D01*
X2719Y261D02*
X2728Y261D01*
X2771Y261D02*
X2780Y261D01*
X2824Y261D02*
X2834Y261D01*
X2853Y261D02*
X2863Y261D01*
X2996Y261D02*
X3039Y261D01*
X105Y260D02*
X152Y260D01*
X276Y260D02*
X285Y260D01*
X297Y260D02*
X307Y260D01*
X316Y260D02*
X325Y260D01*
X369Y260D02*
X378Y260D01*
X421Y260D02*
X431Y260D01*
X451Y260D02*
X460Y260D01*
X2679Y260D02*
X2688Y260D01*
X2700Y260D02*
X2710Y260D01*
X2719Y260D02*
X2728Y260D01*
X2771Y260D02*
X2780Y260D01*
X2824Y260D02*
X2833Y260D01*
X2853Y260D02*
X2863Y260D01*
X2995Y260D02*
X3041Y260D01*
X104Y259D02*
X152Y259D01*
X276Y259D02*
X285Y259D01*
X297Y259D02*
X307Y259D01*
X316Y259D02*
X325Y259D01*
X369Y259D02*
X378Y259D01*
X421Y259D02*
X430Y259D01*
X451Y259D02*
X460Y259D01*
X2679Y259D02*
X2688Y259D01*
X2700Y259D02*
X2710Y259D01*
X2719Y259D02*
X2728Y259D01*
X2771Y259D02*
X2780Y259D01*
X2824Y259D02*
X2833Y259D01*
X2853Y259D02*
X2863Y259D01*
X2994Y259D02*
X3041Y259D01*
X104Y258D02*
X153Y258D01*
X276Y258D02*
X285Y258D01*
X296Y258D02*
X307Y258D01*
X316Y258D02*
X325Y258D01*
X369Y258D02*
X378Y258D01*
X421Y258D02*
X430Y258D01*
X451Y258D02*
X460Y258D01*
X2679Y258D02*
X2688Y258D01*
X2699Y258D02*
X2709Y258D01*
X2719Y258D02*
X2728Y258D01*
X2771Y258D02*
X2780Y258D01*
X2824Y258D02*
X2833Y258D01*
X2853Y258D02*
X2863Y258D01*
X2994Y258D02*
X3042Y258D01*
X104Y257D02*
X153Y257D01*
X276Y257D02*
X285Y257D01*
X296Y257D02*
X306Y257D01*
X316Y257D02*
X325Y257D01*
X369Y257D02*
X378Y257D01*
X421Y257D02*
X430Y257D01*
X451Y257D02*
X460Y257D01*
X2679Y257D02*
X2688Y257D01*
X2699Y257D02*
X2709Y257D01*
X2719Y257D02*
X2728Y257D01*
X2771Y257D02*
X2780Y257D01*
X2824Y257D02*
X2833Y257D01*
X2853Y257D02*
X2863Y257D01*
X2993Y257D02*
X3042Y257D01*
X104Y256D02*
X152Y256D01*
X276Y256D02*
X285Y256D01*
X296Y256D02*
X306Y256D01*
X316Y256D02*
X325Y256D01*
X369Y256D02*
X378Y256D01*
X421Y256D02*
X430Y256D01*
X451Y256D02*
X460Y256D01*
X2679Y256D02*
X2688Y256D01*
X2698Y256D02*
X2708Y256D01*
X2719Y256D02*
X2728Y256D01*
X2771Y256D02*
X2780Y256D01*
X2824Y256D02*
X2833Y256D01*
X2853Y256D02*
X2863Y256D01*
X2993Y256D02*
X3042Y256D01*
X105Y255D02*
X152Y255D01*
X276Y255D02*
X285Y255D01*
X295Y255D02*
X305Y255D01*
X316Y255D02*
X325Y255D01*
X369Y255D02*
X378Y255D01*
X421Y255D02*
X430Y255D01*
X451Y255D02*
X460Y255D01*
X2679Y255D02*
X2688Y255D01*
X2698Y255D02*
X2708Y255D01*
X2719Y255D02*
X2728Y255D01*
X2771Y255D02*
X2780Y255D01*
X2824Y255D02*
X2833Y255D01*
X2853Y255D02*
X2863Y255D01*
X2994Y255D02*
X3042Y255D01*
X105Y254D02*
X151Y254D01*
X276Y254D02*
X285Y254D01*
X295Y254D02*
X305Y254D01*
X316Y254D02*
X325Y254D01*
X369Y254D02*
X378Y254D01*
X421Y254D02*
X430Y254D01*
X451Y254D02*
X460Y254D01*
X2679Y254D02*
X2688Y254D01*
X2697Y254D02*
X2708Y254D01*
X2719Y254D02*
X2728Y254D01*
X2771Y254D02*
X2780Y254D01*
X2824Y254D02*
X2833Y254D01*
X2853Y254D02*
X2863Y254D01*
X2994Y254D02*
X3041Y254D01*
X107Y253D02*
X150Y253D01*
X276Y253D02*
X285Y253D01*
X294Y253D02*
X304Y253D01*
X316Y253D02*
X325Y253D01*
X369Y253D02*
X378Y253D01*
X421Y253D02*
X431Y253D01*
X451Y253D02*
X460Y253D01*
X2679Y253D02*
X2688Y253D01*
X2697Y253D02*
X2707Y253D01*
X2719Y253D02*
X2728Y253D01*
X2771Y253D02*
X2780Y253D01*
X2824Y253D02*
X2833Y253D01*
X2853Y253D02*
X2863Y253D01*
X2995Y253D02*
X3041Y253D01*
X124Y252D02*
X133Y252D01*
X276Y252D02*
X285Y252D01*
X294Y252D02*
X304Y252D01*
X316Y252D02*
X325Y252D01*
X369Y252D02*
X378Y252D01*
X421Y252D02*
X431Y252D01*
X451Y252D02*
X460Y252D01*
X2679Y252D02*
X2688Y252D01*
X2697Y252D02*
X2707Y252D01*
X2719Y252D02*
X2728Y252D01*
X2771Y252D02*
X2780Y252D01*
X2824Y252D02*
X2834Y252D01*
X2853Y252D02*
X2863Y252D01*
X2996Y252D02*
X3039Y252D01*
X124Y251D02*
X133Y251D01*
X276Y251D02*
X285Y251D01*
X293Y251D02*
X303Y251D01*
X316Y251D02*
X325Y251D01*
X369Y251D02*
X378Y251D01*
X422Y251D02*
X431Y251D01*
X451Y251D02*
X460Y251D01*
X2679Y251D02*
X2688Y251D01*
X2696Y251D02*
X2706Y251D01*
X2719Y251D02*
X2728Y251D01*
X2771Y251D02*
X2780Y251D01*
X2824Y251D02*
X2834Y251D01*
X2853Y251D02*
X2863Y251D01*
X3013Y251D02*
X3022Y251D01*
X124Y250D02*
X133Y250D01*
X276Y250D02*
X285Y250D01*
X293Y250D02*
X303Y250D01*
X316Y250D02*
X325Y250D01*
X369Y250D02*
X378Y250D01*
X422Y250D02*
X432Y250D01*
X451Y250D02*
X460Y250D01*
X2679Y250D02*
X2688Y250D01*
X2696Y250D02*
X2706Y250D01*
X2719Y250D02*
X2728Y250D01*
X2771Y250D02*
X2780Y250D01*
X2825Y250D02*
X2834Y250D01*
X2853Y250D02*
X2863Y250D01*
X3013Y250D02*
X3022Y250D01*
X124Y249D02*
X133Y249D01*
X276Y249D02*
X285Y249D01*
X293Y249D02*
X303Y249D01*
X316Y249D02*
X325Y249D01*
X369Y249D02*
X378Y249D01*
X422Y249D02*
X432Y249D01*
X451Y249D02*
X460Y249D01*
X2679Y249D02*
X2688Y249D01*
X2695Y249D02*
X2705Y249D01*
X2719Y249D02*
X2728Y249D01*
X2771Y249D02*
X2780Y249D01*
X2825Y249D02*
X2835Y249D01*
X2853Y249D02*
X2863Y249D01*
X3013Y249D02*
X3022Y249D01*
X124Y248D02*
X133Y248D01*
X276Y248D02*
X285Y248D01*
X292Y248D02*
X302Y248D01*
X316Y248D02*
X325Y248D01*
X369Y248D02*
X378Y248D01*
X423Y248D02*
X433Y248D01*
X451Y248D02*
X460Y248D01*
X2679Y248D02*
X2688Y248D01*
X2695Y248D02*
X2705Y248D01*
X2719Y248D02*
X2728Y248D01*
X2771Y248D02*
X2780Y248D01*
X2825Y248D02*
X2835Y248D01*
X2853Y248D02*
X2863Y248D01*
X3013Y248D02*
X3022Y248D01*
X124Y247D02*
X133Y247D01*
X276Y247D02*
X285Y247D01*
X292Y247D02*
X302Y247D01*
X316Y247D02*
X325Y247D01*
X369Y247D02*
X378Y247D01*
X423Y247D02*
X433Y247D01*
X451Y247D02*
X460Y247D01*
X2679Y247D02*
X2688Y247D01*
X2694Y247D02*
X2704Y247D01*
X2719Y247D02*
X2728Y247D01*
X2771Y247D02*
X2780Y247D01*
X2826Y247D02*
X2836Y247D01*
X2853Y247D02*
X2863Y247D01*
X3013Y247D02*
X3022Y247D01*
X124Y246D02*
X133Y246D01*
X276Y246D02*
X285Y246D01*
X291Y246D02*
X301Y246D01*
X316Y246D02*
X325Y246D01*
X369Y246D02*
X378Y246D01*
X423Y246D02*
X434Y246D01*
X451Y246D02*
X460Y246D01*
X2679Y246D02*
X2688Y246D01*
X2694Y246D02*
X2704Y246D01*
X2719Y246D02*
X2728Y246D01*
X2771Y246D02*
X2780Y246D01*
X2826Y246D02*
X2836Y246D01*
X2853Y246D02*
X2863Y246D01*
X3013Y246D02*
X3022Y246D01*
X124Y245D02*
X133Y245D01*
X276Y245D02*
X285Y245D01*
X291Y245D02*
X301Y245D01*
X316Y245D02*
X325Y245D01*
X369Y245D02*
X378Y245D01*
X424Y245D02*
X434Y245D01*
X451Y245D02*
X460Y245D01*
X2679Y245D02*
X2688Y245D01*
X2693Y245D02*
X2704Y245D01*
X2719Y245D02*
X2728Y245D01*
X2771Y245D02*
X2780Y245D01*
X2827Y245D02*
X2837Y245D01*
X2853Y245D02*
X2863Y245D01*
X3013Y245D02*
X3022Y245D01*
X124Y244D02*
X133Y244D01*
X276Y244D02*
X285Y244D01*
X290Y244D02*
X300Y244D01*
X316Y244D02*
X325Y244D01*
X369Y244D02*
X378Y244D01*
X424Y244D02*
X435Y244D01*
X451Y244D02*
X460Y244D01*
X2679Y244D02*
X2688Y244D01*
X2693Y244D02*
X2703Y244D01*
X2719Y244D02*
X2728Y244D01*
X2771Y244D02*
X2780Y244D01*
X2827Y244D02*
X2837Y244D01*
X2853Y244D02*
X2863Y244D01*
X3013Y244D02*
X3022Y244D01*
X124Y243D02*
X133Y243D01*
X276Y243D02*
X285Y243D01*
X290Y243D02*
X300Y243D01*
X316Y243D02*
X325Y243D01*
X369Y243D02*
X378Y243D01*
X425Y243D02*
X435Y243D01*
X451Y243D02*
X460Y243D01*
X2679Y243D02*
X2688Y243D01*
X2693Y243D02*
X2703Y243D01*
X2719Y243D02*
X2728Y243D01*
X2771Y243D02*
X2780Y243D01*
X2828Y243D02*
X2838Y243D01*
X2853Y243D02*
X2863Y243D01*
X3013Y243D02*
X3022Y243D01*
X124Y242D02*
X133Y242D01*
X276Y242D02*
X285Y242D01*
X289Y242D02*
X300Y242D01*
X316Y242D02*
X325Y242D01*
X369Y242D02*
X378Y242D01*
X425Y242D02*
X436Y242D01*
X451Y242D02*
X460Y242D01*
X2679Y242D02*
X2688Y242D01*
X2692Y242D02*
X2702Y242D01*
X2719Y242D02*
X2728Y242D01*
X2771Y242D02*
X2780Y242D01*
X2828Y242D02*
X2838Y242D01*
X2853Y242D02*
X2863Y242D01*
X3013Y242D02*
X3022Y242D01*
X124Y241D02*
X133Y241D01*
X276Y241D02*
X285Y241D01*
X289Y241D02*
X299Y241D01*
X316Y241D02*
X325Y241D01*
X369Y241D02*
X378Y241D01*
X426Y241D02*
X436Y241D01*
X451Y241D02*
X460Y241D01*
X2679Y241D02*
X2688Y241D01*
X2692Y241D02*
X2702Y241D01*
X2719Y241D02*
X2728Y241D01*
X2771Y241D02*
X2780Y241D01*
X2829Y241D02*
X2839Y241D01*
X2853Y241D02*
X2863Y241D01*
X3013Y241D02*
X3022Y241D01*
X124Y240D02*
X133Y240D01*
X276Y240D02*
X285Y240D01*
X289Y240D02*
X299Y240D01*
X316Y240D02*
X325Y240D01*
X369Y240D02*
X378Y240D01*
X426Y240D02*
X437Y240D01*
X451Y240D02*
X460Y240D01*
X2679Y240D02*
X2688Y240D01*
X2691Y240D02*
X2701Y240D01*
X2719Y240D02*
X2728Y240D01*
X2771Y240D02*
X2780Y240D01*
X2829Y240D02*
X2839Y240D01*
X2853Y240D02*
X2863Y240D01*
X3013Y240D02*
X3022Y240D01*
X124Y239D02*
X133Y239D01*
X276Y239D02*
X285Y239D01*
X288Y239D02*
X298Y239D01*
X316Y239D02*
X325Y239D01*
X369Y239D02*
X378Y239D01*
X427Y239D02*
X437Y239D01*
X451Y239D02*
X460Y239D01*
X2679Y239D02*
X2688Y239D01*
X2691Y239D02*
X2701Y239D01*
X2719Y239D02*
X2728Y239D01*
X2771Y239D02*
X2780Y239D01*
X2830Y239D02*
X2840Y239D01*
X2853Y239D02*
X2863Y239D01*
X3013Y239D02*
X3022Y239D01*
X124Y238D02*
X133Y238D01*
X276Y238D02*
X285Y238D01*
X288Y238D02*
X298Y238D01*
X316Y238D02*
X325Y238D01*
X369Y238D02*
X378Y238D01*
X427Y238D02*
X438Y238D01*
X451Y238D02*
X460Y238D01*
X2679Y238D02*
X2688Y238D01*
X2690Y238D02*
X2700Y238D01*
X2719Y238D02*
X2728Y238D01*
X2771Y238D02*
X2780Y238D01*
X2830Y238D02*
X2841Y238D01*
X2853Y238D02*
X2863Y238D01*
X3013Y238D02*
X3022Y238D01*
X124Y237D02*
X133Y237D01*
X276Y237D02*
X285Y237D01*
X287Y237D02*
X297Y237D01*
X316Y237D02*
X325Y237D01*
X369Y237D02*
X378Y237D01*
X428Y237D02*
X438Y237D01*
X451Y237D02*
X460Y237D01*
X2679Y237D02*
X2688Y237D01*
X2690Y237D02*
X2700Y237D01*
X2719Y237D02*
X2728Y237D01*
X2771Y237D02*
X2780Y237D01*
X2831Y237D02*
X2841Y237D01*
X2853Y237D02*
X2863Y237D01*
X3013Y237D02*
X3022Y237D01*
X124Y236D02*
X133Y236D01*
X276Y236D02*
X297Y236D01*
X316Y236D02*
X325Y236D01*
X369Y236D02*
X378Y236D01*
X428Y236D02*
X439Y236D01*
X451Y236D02*
X460Y236D01*
X2679Y236D02*
X2700Y236D01*
X2719Y236D02*
X2728Y236D01*
X2771Y236D02*
X2780Y236D01*
X2831Y236D02*
X2842Y236D01*
X2853Y236D02*
X2863Y236D01*
X3013Y236D02*
X3022Y236D01*
X125Y235D02*
X132Y235D01*
X276Y235D02*
X296Y235D01*
X316Y235D02*
X325Y235D01*
X369Y235D02*
X378Y235D01*
X429Y235D02*
X439Y235D01*
X451Y235D02*
X460Y235D01*
X2679Y235D02*
X2699Y235D01*
X2719Y235D02*
X2728Y235D01*
X2771Y235D02*
X2780Y235D01*
X2832Y235D02*
X2842Y235D01*
X2853Y235D02*
X2863Y235D01*
X3014Y235D02*
X3022Y235D01*
X126Y234D02*
X131Y234D01*
X276Y234D02*
X296Y234D01*
X316Y234D02*
X325Y234D01*
X369Y234D02*
X378Y234D01*
X429Y234D02*
X440Y234D01*
X451Y234D02*
X460Y234D01*
X2679Y234D02*
X2699Y234D01*
X2719Y234D02*
X2728Y234D01*
X2771Y234D02*
X2780Y234D01*
X2832Y234D02*
X2843Y234D01*
X2853Y234D02*
X2863Y234D01*
X3014Y234D02*
X3022Y234D01*
X127Y233D02*
X130Y233D01*
X276Y233D02*
X296Y233D01*
X316Y233D02*
X325Y233D01*
X369Y233D02*
X378Y233D01*
X430Y233D02*
X440Y233D01*
X451Y233D02*
X460Y233D01*
X2679Y233D02*
X2698Y233D01*
X2719Y233D02*
X2728Y233D01*
X2771Y233D02*
X2780Y233D01*
X2833Y233D02*
X2843Y233D01*
X2853Y233D02*
X2863Y233D01*
X3015Y233D02*
X3021Y233D01*
X276Y232D02*
X295Y232D01*
X316Y232D02*
X325Y232D01*
X369Y232D02*
X378Y232D01*
X430Y232D02*
X441Y232D01*
X451Y232D02*
X460Y232D01*
X2679Y232D02*
X2698Y232D01*
X2719Y232D02*
X2728Y232D01*
X2771Y232D02*
X2780Y232D01*
X2833Y232D02*
X2844Y232D01*
X2853Y232D02*
X2863Y232D01*
X3016Y232D02*
X3019Y232D01*
X276Y231D02*
X295Y231D01*
X316Y231D02*
X325Y231D01*
X369Y231D02*
X378Y231D01*
X431Y231D02*
X441Y231D01*
X451Y231D02*
X460Y231D01*
X2679Y231D02*
X2697Y231D01*
X2719Y231D02*
X2728Y231D01*
X2771Y231D02*
X2780Y231D01*
X2834Y231D02*
X2844Y231D01*
X2853Y231D02*
X2863Y231D01*
X276Y230D02*
X294Y230D01*
X316Y230D02*
X325Y230D01*
X369Y230D02*
X378Y230D01*
X431Y230D02*
X442Y230D01*
X451Y230D02*
X460Y230D01*
X2679Y230D02*
X2697Y230D01*
X2719Y230D02*
X2728Y230D01*
X2771Y230D02*
X2780Y230D01*
X2834Y230D02*
X2845Y230D01*
X2853Y230D02*
X2863Y230D01*
X276Y229D02*
X294Y229D01*
X316Y229D02*
X325Y229D01*
X369Y229D02*
X378Y229D01*
X432Y229D02*
X443Y229D01*
X451Y229D02*
X460Y229D01*
X2679Y229D02*
X2697Y229D01*
X2719Y229D02*
X2728Y229D01*
X2771Y229D02*
X2780Y229D01*
X2835Y229D02*
X2845Y229D01*
X2853Y229D02*
X2863Y229D01*
X276Y228D02*
X293Y228D01*
X316Y228D02*
X325Y228D01*
X368Y228D02*
X378Y228D01*
X432Y228D02*
X444Y228D01*
X451Y228D02*
X460Y228D01*
X2679Y228D02*
X2696Y228D01*
X2719Y228D02*
X2728Y228D01*
X2771Y228D02*
X2780Y228D01*
X2835Y228D02*
X2847Y228D01*
X2853Y228D02*
X2863Y228D01*
X276Y227D02*
X293Y227D01*
X316Y227D02*
X325Y227D01*
X352Y227D02*
X395Y227D01*
X433Y227D02*
X467Y227D01*
X2679Y227D02*
X2696Y227D01*
X2719Y227D02*
X2728Y227D01*
X2754Y227D02*
X2797Y227D01*
X2836Y227D02*
X2870Y227D01*
X276Y226D02*
X292Y226D01*
X316Y226D02*
X325Y226D01*
X350Y226D02*
X396Y226D01*
X433Y226D02*
X468Y226D01*
X2679Y226D02*
X2695Y226D01*
X2719Y226D02*
X2728Y226D01*
X2753Y226D02*
X2799Y226D01*
X2836Y226D02*
X2871Y226D01*
X276Y225D02*
X292Y225D01*
X316Y225D02*
X325Y225D01*
X349Y225D02*
X397Y225D01*
X434Y225D02*
X469Y225D01*
X2679Y225D02*
X2695Y225D01*
X2719Y225D02*
X2728Y225D01*
X2752Y225D02*
X2799Y225D01*
X2837Y225D02*
X2872Y225D01*
X276Y224D02*
X292Y224D01*
X316Y224D02*
X325Y224D01*
X349Y224D02*
X397Y224D01*
X434Y224D02*
X469Y224D01*
X2679Y224D02*
X2694Y224D01*
X2719Y224D02*
X2728Y224D01*
X2752Y224D02*
X2800Y224D01*
X2837Y224D02*
X2872Y224D01*
X276Y223D02*
X291Y223D01*
X316Y223D02*
X325Y223D01*
X349Y223D02*
X397Y223D01*
X435Y223D02*
X470Y223D01*
X2679Y223D02*
X2694Y223D01*
X2719Y223D02*
X2728Y223D01*
X2751Y223D02*
X2800Y223D01*
X2838Y223D02*
X2872Y223D01*
X276Y222D02*
X291Y222D01*
X316Y222D02*
X325Y222D01*
X349Y222D02*
X397Y222D01*
X436Y222D02*
X470Y222D01*
X2679Y222D02*
X2693Y222D01*
X2719Y222D02*
X2728Y222D01*
X2751Y222D02*
X2800Y222D01*
X2839Y222D02*
X2872Y222D01*
X276Y221D02*
X290Y221D01*
X316Y221D02*
X325Y221D01*
X349Y221D02*
X397Y221D01*
X437Y221D02*
X469Y221D01*
X2679Y221D02*
X2693Y221D01*
X2719Y221D02*
X2728Y221D01*
X2752Y221D02*
X2800Y221D01*
X2840Y221D02*
X2872Y221D01*
X276Y220D02*
X290Y220D01*
X317Y220D02*
X324Y220D01*
X349Y220D02*
X397Y220D01*
X439Y220D02*
X469Y220D01*
X2679Y220D02*
X2693Y220D01*
X2720Y220D02*
X2727Y220D01*
X2752Y220D02*
X2799Y220D01*
X2841Y220D02*
X2872Y220D01*
X276Y219D02*
X289Y219D01*
X318Y219D02*
X324Y219D01*
X350Y219D02*
X396Y219D01*
X440Y219D02*
X468Y219D01*
X2679Y219D02*
X2692Y219D01*
X2720Y219D02*
X2726Y219D01*
X2753Y219D02*
X2799Y219D01*
X2843Y219D02*
X2871Y219D01*
X276Y218D02*
X289Y218D01*
X319Y218D02*
X322Y218D01*
X352Y218D02*
X395Y218D01*
X443Y218D02*
X467Y218D01*
X2679Y218D02*
X2692Y218D01*
X2722Y218D02*
X2725Y218D01*
X2754Y218D02*
X2797Y218D01*
X2846Y218D02*
X2870Y218D01*
X277Y96D02*
X325Y96D01*
X352Y96D02*
X355Y96D01*
X392Y96D02*
X395Y96D01*
X443Y96D02*
X449Y96D01*
X516Y96D02*
X539Y96D01*
X2607Y96D02*
X2656Y96D01*
X2683Y96D02*
X2686Y96D01*
X2722Y96D02*
X2725Y96D01*
X2773Y96D02*
X2779Y96D01*
X2847Y96D02*
X2870Y96D01*
X277Y95D02*
X326Y95D01*
X351Y95D02*
X357Y95D01*
X390Y95D02*
X396Y95D01*
X440Y95D02*
X451Y95D01*
X513Y95D02*
X541Y95D01*
X2607Y95D02*
X2656Y95D01*
X2681Y95D02*
X2687Y95D01*
X2721Y95D02*
X2727Y95D01*
X2771Y95D02*
X2782Y95D01*
X2844Y95D02*
X2871Y95D01*
X277Y94D02*
X326Y94D01*
X350Y94D02*
X357Y94D01*
X389Y94D02*
X397Y94D01*
X439Y94D02*
X453Y94D01*
X512Y94D02*
X542Y94D01*
X2607Y94D02*
X2656Y94D01*
X2680Y94D02*
X2688Y94D01*
X2720Y94D02*
X2727Y94D01*
X2769Y94D02*
X2783Y94D01*
X2842Y94D02*
X2872Y94D01*
X277Y93D02*
X326Y93D01*
X349Y93D02*
X358Y93D01*
X389Y93D02*
X397Y93D01*
X437Y93D02*
X454Y93D01*
X510Y93D02*
X542Y93D01*
X2607Y93D02*
X2656Y93D01*
X2680Y93D02*
X2688Y93D01*
X2719Y93D02*
X2728Y93D01*
X2768Y93D02*
X2784Y93D01*
X2841Y93D02*
X2873Y93D01*
X277Y92D02*
X326Y92D01*
X349Y92D02*
X358Y92D01*
X389Y92D02*
X398Y92D01*
X436Y92D02*
X455Y92D01*
X509Y92D02*
X542Y92D01*
X2607Y92D02*
X2656Y92D01*
X2680Y92D02*
X2688Y92D01*
X2719Y92D02*
X2728Y92D01*
X2767Y92D02*
X2786Y92D01*
X2840Y92D02*
X2873Y92D01*
X277Y91D02*
X326Y91D01*
X349Y91D02*
X358Y91D01*
X389Y91D02*
X398Y91D01*
X436Y91D02*
X456Y91D01*
X508Y91D02*
X542Y91D01*
X2607Y91D02*
X2656Y91D01*
X2679Y91D02*
X2689Y91D01*
X2719Y91D02*
X2728Y91D01*
X2766Y91D02*
X2786Y91D01*
X2839Y91D02*
X2873Y91D01*
X277Y90D02*
X326Y90D01*
X349Y90D02*
X358Y90D01*
X389Y90D02*
X398Y90D01*
X435Y90D02*
X456Y90D01*
X507Y90D02*
X542Y90D01*
X2607Y90D02*
X2656Y90D01*
X2679Y90D02*
X2689Y90D01*
X2719Y90D02*
X2728Y90D01*
X2765Y90D02*
X2787Y90D01*
X2838Y90D02*
X2873Y90D01*
X277Y89D02*
X326Y89D01*
X349Y89D02*
X358Y89D01*
X389Y89D02*
X398Y89D01*
X434Y89D02*
X457Y89D01*
X507Y89D02*
X542Y89D01*
X2607Y89D02*
X2656Y89D01*
X2679Y89D02*
X2689Y89D01*
X2719Y89D02*
X2728Y89D01*
X2765Y89D02*
X2788Y89D01*
X2837Y89D02*
X2872Y89D01*
X277Y88D02*
X326Y88D01*
X349Y88D02*
X358Y88D01*
X389Y88D02*
X398Y88D01*
X434Y88D02*
X458Y88D01*
X506Y88D02*
X541Y88D01*
X2607Y88D02*
X2656Y88D01*
X2679Y88D02*
X2689Y88D01*
X2719Y88D02*
X2728Y88D01*
X2764Y88D02*
X2788Y88D01*
X2837Y88D02*
X2871Y88D01*
X277Y87D02*
X326Y87D01*
X349Y87D02*
X358Y87D01*
X389Y87D02*
X398Y87D01*
X433Y87D02*
X458Y87D01*
X506Y87D02*
X540Y87D01*
X2607Y87D02*
X2656Y87D01*
X2679Y87D02*
X2689Y87D01*
X2719Y87D02*
X2728Y87D01*
X2764Y87D02*
X2789Y87D01*
X2836Y87D02*
X2870Y87D01*
X277Y86D02*
X286Y86D01*
X297Y86D02*
X306Y86D01*
X316Y86D02*
X326Y86D01*
X349Y86D02*
X358Y86D01*
X389Y86D02*
X398Y86D01*
X433Y86D02*
X444Y86D01*
X448Y86D02*
X459Y86D01*
X505Y86D02*
X517Y86D01*
X523Y86D02*
X533Y86D01*
X2607Y86D02*
X2616Y86D01*
X2627Y86D02*
X2636Y86D01*
X2647Y86D02*
X2656Y86D01*
X2679Y86D02*
X2689Y86D01*
X2719Y86D02*
X2728Y86D01*
X2763Y86D02*
X2774Y86D01*
X2778Y86D02*
X2789Y86D01*
X2836Y86D02*
X2847Y86D01*
X2854Y86D02*
X2863Y86D01*
X277Y85D02*
X286Y85D01*
X297Y85D02*
X306Y85D01*
X316Y85D02*
X326Y85D01*
X349Y85D02*
X358Y85D01*
X389Y85D02*
X398Y85D01*
X432Y85D02*
X443Y85D01*
X449Y85D02*
X459Y85D01*
X505Y85D02*
X515Y85D01*
X523Y85D02*
X532Y85D01*
X2607Y85D02*
X2616Y85D01*
X2627Y85D02*
X2636Y85D01*
X2647Y85D02*
X2656Y85D01*
X2679Y85D02*
X2689Y85D01*
X2719Y85D02*
X2728Y85D01*
X2763Y85D02*
X2773Y85D01*
X2779Y85D02*
X2790Y85D01*
X2835Y85D02*
X2846Y85D01*
X2854Y85D02*
X2863Y85D01*
X277Y84D02*
X286Y84D01*
X297Y84D02*
X306Y84D01*
X316Y84D02*
X326Y84D01*
X349Y84D02*
X358Y84D01*
X389Y84D02*
X398Y84D01*
X432Y84D02*
X442Y84D01*
X449Y84D02*
X460Y84D01*
X504Y84D02*
X515Y84D01*
X523Y84D02*
X532Y84D01*
X2607Y84D02*
X2616Y84D01*
X2627Y84D02*
X2636Y84D01*
X2647Y84D02*
X2656Y84D01*
X2679Y84D02*
X2689Y84D01*
X2719Y84D02*
X2728Y84D01*
X2762Y84D02*
X2773Y84D01*
X2780Y84D02*
X2790Y84D01*
X2835Y84D02*
X2845Y84D01*
X2854Y84D02*
X2863Y84D01*
X277Y83D02*
X286Y83D01*
X297Y83D02*
X306Y83D01*
X316Y83D02*
X325Y83D01*
X349Y83D02*
X358Y83D01*
X389Y83D02*
X398Y83D01*
X431Y83D02*
X442Y83D01*
X450Y83D02*
X460Y83D01*
X504Y83D02*
X514Y83D01*
X523Y83D02*
X532Y83D01*
X2607Y83D02*
X2616Y83D01*
X2627Y83D02*
X2636Y83D01*
X2647Y83D02*
X2656Y83D01*
X2679Y83D02*
X2689Y83D01*
X2719Y83D02*
X2728Y83D01*
X2762Y83D02*
X2772Y83D01*
X2780Y83D02*
X2791Y83D01*
X2834Y83D02*
X2845Y83D01*
X2854Y83D02*
X2863Y83D01*
X277Y82D02*
X286Y82D01*
X297Y82D02*
X306Y82D01*
X317Y82D02*
X325Y82D01*
X349Y82D02*
X358Y82D01*
X389Y82D02*
X398Y82D01*
X431Y82D02*
X441Y82D01*
X450Y82D02*
X461Y82D01*
X503Y82D02*
X514Y82D01*
X523Y82D02*
X532Y82D01*
X2607Y82D02*
X2616Y82D01*
X2627Y82D02*
X2636Y82D01*
X2647Y82D02*
X2656Y82D01*
X2679Y82D02*
X2689Y82D01*
X2719Y82D02*
X2728Y82D01*
X2761Y82D02*
X2772Y82D01*
X2781Y82D02*
X2791Y82D01*
X2834Y82D02*
X2844Y82D01*
X2854Y82D02*
X2863Y82D01*
X277Y81D02*
X285Y81D01*
X297Y81D02*
X306Y81D01*
X317Y81D02*
X325Y81D01*
X349Y81D02*
X358Y81D01*
X389Y81D02*
X398Y81D01*
X430Y81D02*
X441Y81D01*
X451Y81D02*
X461Y81D01*
X503Y81D02*
X513Y81D01*
X523Y81D02*
X532Y81D01*
X2608Y81D02*
X2616Y81D01*
X2627Y81D02*
X2636Y81D01*
X2647Y81D02*
X2656Y81D01*
X2679Y81D02*
X2689Y81D01*
X2719Y81D02*
X2728Y81D01*
X2761Y81D02*
X2771Y81D01*
X2781Y81D02*
X2792Y81D01*
X2833Y81D02*
X2844Y81D01*
X2854Y81D02*
X2863Y81D01*
X278Y80D02*
X285Y80D01*
X297Y80D02*
X306Y80D01*
X318Y80D02*
X324Y80D01*
X349Y80D02*
X358Y80D01*
X389Y80D02*
X398Y80D01*
X430Y80D02*
X440Y80D01*
X451Y80D02*
X462Y80D01*
X502Y80D02*
X513Y80D01*
X523Y80D02*
X532Y80D01*
X2608Y80D02*
X2615Y80D01*
X2627Y80D02*
X2636Y80D01*
X2648Y80D02*
X2655Y80D01*
X2679Y80D02*
X2689Y80D01*
X2719Y80D02*
X2728Y80D01*
X2760Y80D02*
X2771Y80D01*
X2782Y80D02*
X2792Y80D01*
X2833Y80D02*
X2843Y80D01*
X2854Y80D02*
X2863Y80D01*
X279Y79D02*
X284Y79D01*
X297Y79D02*
X306Y79D01*
X319Y79D02*
X323Y79D01*
X349Y79D02*
X358Y79D01*
X389Y79D02*
X398Y79D01*
X429Y79D02*
X440Y79D01*
X452Y79D02*
X462Y79D01*
X502Y79D02*
X512Y79D01*
X523Y79D02*
X532Y79D01*
X2609Y79D02*
X2614Y79D01*
X2627Y79D02*
X2636Y79D01*
X2649Y79D02*
X2654Y79D01*
X2679Y79D02*
X2689Y79D01*
X2719Y79D02*
X2728Y79D01*
X2760Y79D02*
X2770Y79D01*
X2782Y79D02*
X2793Y79D01*
X2832Y79D02*
X2843Y79D01*
X2854Y79D02*
X2863Y79D01*
X297Y78D02*
X306Y78D01*
X321Y78D02*
X321Y78D01*
X349Y78D02*
X358Y78D01*
X389Y78D02*
X398Y78D01*
X429Y78D02*
X439Y78D01*
X452Y78D02*
X463Y78D01*
X501Y78D02*
X511Y78D01*
X523Y78D02*
X532Y78D01*
X2612Y78D02*
X2612Y78D01*
X2627Y78D02*
X2636Y78D01*
X2679Y78D02*
X2689Y78D01*
X2719Y78D02*
X2728Y78D01*
X2759Y78D02*
X2770Y78D01*
X2783Y78D02*
X2793Y78D01*
X2832Y78D02*
X2842Y78D01*
X2854Y78D02*
X2863Y78D01*
X297Y77D02*
X306Y77D01*
X349Y77D02*
X358Y77D01*
X389Y77D02*
X398Y77D01*
X428Y77D02*
X439Y77D01*
X453Y77D02*
X463Y77D01*
X501Y77D02*
X511Y77D01*
X523Y77D02*
X532Y77D01*
X2627Y77D02*
X2636Y77D01*
X2679Y77D02*
X2689Y77D01*
X2719Y77D02*
X2728Y77D01*
X2759Y77D02*
X2769Y77D01*
X2783Y77D02*
X2794Y77D01*
X2831Y77D02*
X2841Y77D01*
X2854Y77D02*
X2863Y77D01*
X297Y76D02*
X306Y76D01*
X349Y76D02*
X358Y76D01*
X389Y76D02*
X398Y76D01*
X428Y76D02*
X438Y76D01*
X453Y76D02*
X464Y76D01*
X500Y76D02*
X510Y76D01*
X523Y76D02*
X532Y76D01*
X2627Y76D02*
X2636Y76D01*
X2679Y76D02*
X2689Y76D01*
X2719Y76D02*
X2728Y76D01*
X2758Y76D02*
X2769Y76D01*
X2784Y76D02*
X2794Y76D01*
X2831Y76D02*
X2841Y76D01*
X2854Y76D02*
X2863Y76D01*
X297Y75D02*
X306Y75D01*
X349Y75D02*
X358Y75D01*
X389Y75D02*
X398Y75D01*
X427Y75D02*
X438Y75D01*
X454Y75D02*
X464Y75D01*
X500Y75D02*
X510Y75D01*
X523Y75D02*
X532Y75D01*
X2627Y75D02*
X2636Y75D01*
X2679Y75D02*
X2689Y75D01*
X2719Y75D02*
X2728Y75D01*
X2758Y75D02*
X2768Y75D01*
X2784Y75D02*
X2795Y75D01*
X2830Y75D02*
X2840Y75D01*
X2854Y75D02*
X2863Y75D01*
X297Y74D02*
X306Y74D01*
X349Y74D02*
X358Y74D01*
X389Y74D02*
X398Y74D01*
X427Y74D02*
X437Y74D01*
X454Y74D02*
X465Y74D01*
X499Y74D02*
X509Y74D01*
X523Y74D02*
X532Y74D01*
X2627Y74D02*
X2636Y74D01*
X2679Y74D02*
X2689Y74D01*
X2719Y74D02*
X2728Y74D01*
X2757Y74D02*
X2768Y74D01*
X2785Y74D02*
X2795Y74D01*
X2830Y74D02*
X2840Y74D01*
X2854Y74D02*
X2863Y74D01*
X297Y73D02*
X306Y73D01*
X349Y73D02*
X358Y73D01*
X389Y73D02*
X398Y73D01*
X426Y73D02*
X437Y73D01*
X455Y73D02*
X465Y73D01*
X499Y73D02*
X509Y73D01*
X523Y73D02*
X532Y73D01*
X2627Y73D02*
X2636Y73D01*
X2679Y73D02*
X2689Y73D01*
X2719Y73D02*
X2728Y73D01*
X2757Y73D02*
X2767Y73D01*
X2785Y73D02*
X2796Y73D01*
X2829Y73D02*
X2839Y73D01*
X2854Y73D02*
X2863Y73D01*
X297Y72D02*
X306Y72D01*
X349Y72D02*
X358Y72D01*
X389Y72D02*
X398Y72D01*
X426Y72D02*
X436Y72D01*
X455Y72D02*
X466Y72D01*
X498Y72D02*
X508Y72D01*
X523Y72D02*
X532Y72D01*
X2627Y72D02*
X2636Y72D01*
X2679Y72D02*
X2689Y72D01*
X2719Y72D02*
X2728Y72D01*
X2756Y72D02*
X2767Y72D01*
X2786Y72D02*
X2796Y72D01*
X2829Y72D02*
X2839Y72D01*
X2854Y72D02*
X2863Y72D01*
X297Y71D02*
X306Y71D01*
X349Y71D02*
X358Y71D01*
X389Y71D02*
X398Y71D01*
X425Y71D02*
X436Y71D01*
X456Y71D02*
X466Y71D01*
X498Y71D02*
X508Y71D01*
X523Y71D02*
X532Y71D01*
X2627Y71D02*
X2636Y71D01*
X2679Y71D02*
X2689Y71D01*
X2719Y71D02*
X2728Y71D01*
X2756Y71D02*
X2766Y71D01*
X2786Y71D02*
X2797Y71D01*
X2828Y71D02*
X2838Y71D01*
X2854Y71D02*
X2863Y71D01*
X297Y70D02*
X306Y70D01*
X349Y70D02*
X358Y70D01*
X389Y70D02*
X398Y70D01*
X425Y70D02*
X435Y70D01*
X456Y70D02*
X467Y70D01*
X497Y70D02*
X507Y70D01*
X523Y70D02*
X532Y70D01*
X2627Y70D02*
X2636Y70D01*
X2679Y70D02*
X2689Y70D01*
X2719Y70D02*
X2728Y70D01*
X2755Y70D02*
X2766Y70D01*
X2787Y70D02*
X2797Y70D01*
X2828Y70D02*
X2838Y70D01*
X2854Y70D02*
X2863Y70D01*
X297Y69D02*
X306Y69D01*
X349Y69D02*
X358Y69D01*
X389Y69D02*
X398Y69D01*
X424Y69D02*
X435Y69D01*
X457Y69D02*
X467Y69D01*
X497Y69D02*
X507Y69D01*
X523Y69D02*
X532Y69D01*
X2627Y69D02*
X2636Y69D01*
X2679Y69D02*
X2689Y69D01*
X2719Y69D02*
X2728Y69D01*
X2755Y69D02*
X2765Y69D01*
X2787Y69D02*
X2798Y69D01*
X2827Y69D02*
X2837Y69D01*
X2854Y69D02*
X2863Y69D01*
X297Y68D02*
X306Y68D01*
X349Y68D02*
X358Y68D01*
X389Y68D02*
X398Y68D01*
X424Y68D02*
X434Y68D01*
X457Y68D02*
X468Y68D01*
X496Y68D02*
X506Y68D01*
X523Y68D02*
X532Y68D01*
X2627Y68D02*
X2636Y68D01*
X2679Y68D02*
X2689Y68D01*
X2719Y68D02*
X2728Y68D01*
X2754Y68D02*
X2765Y68D01*
X2788Y68D02*
X2798Y68D01*
X2827Y68D02*
X2837Y68D01*
X2854Y68D02*
X2863Y68D01*
X297Y67D02*
X306Y67D01*
X349Y67D02*
X358Y67D01*
X389Y67D02*
X398Y67D01*
X423Y67D02*
X434Y67D01*
X458Y67D02*
X468Y67D01*
X496Y67D02*
X506Y67D01*
X523Y67D02*
X532Y67D01*
X2627Y67D02*
X2636Y67D01*
X2679Y67D02*
X2689Y67D01*
X2719Y67D02*
X2728Y67D01*
X2754Y67D02*
X2764Y67D01*
X2788Y67D02*
X2799Y67D01*
X2826Y67D02*
X2836Y67D01*
X2854Y67D02*
X2863Y67D01*
X297Y66D02*
X306Y66D01*
X349Y66D02*
X358Y66D01*
X389Y66D02*
X398Y66D01*
X423Y66D02*
X433Y66D01*
X458Y66D02*
X468Y66D01*
X495Y66D02*
X505Y66D01*
X523Y66D02*
X532Y66D01*
X2627Y66D02*
X2636Y66D01*
X2679Y66D02*
X2689Y66D01*
X2719Y66D02*
X2728Y66D01*
X2753Y66D02*
X2764Y66D01*
X2789Y66D02*
X2799Y66D01*
X2826Y66D02*
X2836Y66D01*
X2854Y66D02*
X2863Y66D01*
X107Y65D02*
X149Y65D01*
X297Y65D02*
X306Y65D01*
X349Y65D02*
X358Y65D01*
X389Y65D02*
X398Y65D01*
X423Y65D02*
X433Y65D01*
X459Y65D02*
X469Y65D01*
X495Y65D02*
X505Y65D01*
X523Y65D02*
X532Y65D01*
X2627Y65D02*
X2636Y65D01*
X2679Y65D02*
X2689Y65D01*
X2719Y65D02*
X2728Y65D01*
X2753Y65D02*
X2763Y65D01*
X2789Y65D02*
X2799Y65D01*
X2825Y65D02*
X2835Y65D01*
X2854Y65D02*
X2863Y65D01*
X106Y64D02*
X151Y64D01*
X297Y64D02*
X306Y64D01*
X349Y64D02*
X358Y64D01*
X389Y64D02*
X398Y64D01*
X422Y64D02*
X432Y64D01*
X459Y64D02*
X469Y64D01*
X495Y64D02*
X504Y64D01*
X523Y64D02*
X532Y64D01*
X2627Y64D02*
X2636Y64D01*
X2679Y64D02*
X2689Y64D01*
X2719Y64D02*
X2728Y64D01*
X2753Y64D02*
X2763Y64D01*
X2790Y64D02*
X2800Y64D01*
X2825Y64D02*
X2835Y64D01*
X2854Y64D02*
X2863Y64D01*
X2997Y64D02*
X3039Y64D01*
X105Y63D02*
X152Y63D01*
X297Y63D02*
X306Y63D01*
X349Y63D02*
X358Y63D01*
X389Y63D02*
X398Y63D01*
X422Y63D02*
X432Y63D01*
X460Y63D02*
X469Y63D01*
X494Y63D02*
X504Y63D01*
X523Y63D02*
X532Y63D01*
X2627Y63D02*
X2636Y63D01*
X2679Y63D02*
X2689Y63D01*
X2719Y63D02*
X2728Y63D01*
X2752Y63D02*
X2762Y63D01*
X2790Y63D02*
X2800Y63D01*
X2825Y63D02*
X2834Y63D01*
X2854Y63D02*
X2863Y63D01*
X2995Y63D02*
X3040Y63D01*
X104Y62D02*
X152Y62D01*
X297Y62D02*
X306Y62D01*
X349Y62D02*
X358Y62D01*
X389Y62D02*
X398Y62D01*
X422Y62D02*
X431Y62D01*
X460Y62D02*
X470Y62D01*
X494Y62D02*
X504Y62D01*
X523Y62D02*
X532Y62D01*
X2627Y62D02*
X2636Y62D01*
X2679Y62D02*
X2689Y62D01*
X2719Y62D02*
X2728Y62D01*
X2752Y62D02*
X2762Y62D01*
X2791Y62D02*
X2800Y62D01*
X2825Y62D02*
X2834Y62D01*
X2854Y62D02*
X2863Y62D01*
X2994Y62D02*
X3041Y62D01*
X104Y61D02*
X153Y61D01*
X297Y61D02*
X306Y61D01*
X349Y61D02*
X358Y61D01*
X389Y61D02*
X398Y61D01*
X422Y61D02*
X431Y61D01*
X460Y61D02*
X470Y61D01*
X494Y61D02*
X503Y61D01*
X523Y61D02*
X532Y61D01*
X2627Y61D02*
X2636Y61D01*
X2679Y61D02*
X2689Y61D01*
X2719Y61D02*
X2728Y61D01*
X2752Y61D02*
X2761Y61D01*
X2791Y61D02*
X2800Y61D01*
X2824Y61D02*
X2834Y61D01*
X2854Y61D02*
X2863Y61D01*
X2994Y61D02*
X3042Y61D01*
X104Y60D02*
X153Y60D01*
X297Y60D02*
X306Y60D01*
X349Y60D02*
X358Y60D01*
X389Y60D02*
X398Y60D01*
X421Y60D02*
X431Y60D01*
X461Y60D02*
X470Y60D01*
X494Y60D02*
X503Y60D01*
X523Y60D02*
X532Y60D01*
X2627Y60D02*
X2636Y60D01*
X2679Y60D02*
X2689Y60D01*
X2719Y60D02*
X2728Y60D01*
X2752Y60D02*
X2761Y60D01*
X2791Y60D02*
X2800Y60D01*
X2824Y60D02*
X2833Y60D01*
X2854Y60D02*
X2863Y60D01*
X2994Y60D02*
X3042Y60D01*
X104Y59D02*
X153Y59D01*
X297Y59D02*
X306Y59D01*
X349Y59D02*
X358Y59D01*
X389Y59D02*
X398Y59D01*
X421Y59D02*
X431Y59D01*
X461Y59D02*
X470Y59D01*
X494Y59D02*
X503Y59D01*
X523Y59D02*
X532Y59D01*
X2627Y59D02*
X2636Y59D01*
X2679Y59D02*
X2689Y59D01*
X2719Y59D02*
X2728Y59D01*
X2752Y59D02*
X2761Y59D01*
X2791Y59D02*
X2800Y59D01*
X2824Y59D02*
X2833Y59D01*
X2854Y59D02*
X2863Y59D01*
X2993Y59D02*
X3042Y59D01*
X104Y58D02*
X153Y58D01*
X297Y58D02*
X306Y58D01*
X349Y58D02*
X358Y58D01*
X389Y58D02*
X398Y58D01*
X421Y58D02*
X430Y58D01*
X461Y58D02*
X470Y58D01*
X494Y58D02*
X503Y58D01*
X523Y58D02*
X532Y58D01*
X2627Y58D02*
X2636Y58D01*
X2679Y58D02*
X2689Y58D01*
X2719Y58D02*
X2728Y58D01*
X2752Y58D02*
X2761Y58D01*
X2791Y58D02*
X2801Y58D01*
X2824Y58D02*
X2833Y58D01*
X2854Y58D02*
X2863Y58D01*
X2993Y58D02*
X3042Y58D01*
X104Y57D02*
X153Y57D01*
X297Y57D02*
X306Y57D01*
X349Y57D02*
X358Y57D01*
X389Y57D02*
X398Y57D01*
X421Y57D02*
X430Y57D01*
X461Y57D02*
X470Y57D01*
X494Y57D02*
X503Y57D01*
X523Y57D02*
X532Y57D01*
X2627Y57D02*
X2636Y57D01*
X2679Y57D02*
X2689Y57D01*
X2719Y57D02*
X2728Y57D01*
X2752Y57D02*
X2761Y57D01*
X2791Y57D02*
X2801Y57D01*
X2824Y57D02*
X2833Y57D01*
X2854Y57D02*
X2863Y57D01*
X2993Y57D02*
X3042Y57D01*
X104Y56D02*
X153Y56D01*
X297Y56D02*
X306Y56D01*
X349Y56D02*
X358Y56D01*
X389Y56D02*
X398Y56D01*
X421Y56D02*
X431Y56D01*
X461Y56D02*
X470Y56D01*
X494Y56D02*
X503Y56D01*
X523Y56D02*
X532Y56D01*
X2627Y56D02*
X2636Y56D01*
X2679Y56D02*
X2689Y56D01*
X2719Y56D02*
X2728Y56D01*
X2752Y56D02*
X2761Y56D01*
X2791Y56D02*
X2800Y56D01*
X2824Y56D02*
X2833Y56D01*
X2854Y56D02*
X2863Y56D01*
X2993Y56D02*
X3042Y56D01*
X104Y55D02*
X152Y55D01*
X297Y55D02*
X306Y55D01*
X349Y55D02*
X358Y55D01*
X389Y55D02*
X398Y55D01*
X421Y55D02*
X431Y55D01*
X461Y55D02*
X470Y55D01*
X494Y55D02*
X503Y55D01*
X523Y55D02*
X532Y55D01*
X2627Y55D02*
X2636Y55D01*
X2679Y55D02*
X2689Y55D01*
X2719Y55D02*
X2728Y55D01*
X2752Y55D02*
X2761Y55D01*
X2791Y55D02*
X2800Y55D01*
X2824Y55D02*
X2834Y55D01*
X2854Y55D02*
X2863Y55D01*
X2993Y55D02*
X3042Y55D01*
X104Y54D02*
X152Y54D01*
X297Y54D02*
X306Y54D01*
X349Y54D02*
X358Y54D01*
X389Y54D02*
X398Y54D01*
X422Y54D02*
X431Y54D01*
X460Y54D02*
X470Y54D01*
X494Y54D02*
X503Y54D01*
X523Y54D02*
X532Y54D01*
X2627Y54D02*
X2636Y54D01*
X2679Y54D02*
X2689Y54D01*
X2719Y54D02*
X2728Y54D01*
X2752Y54D02*
X2762Y54D01*
X2791Y54D02*
X2800Y54D01*
X2824Y54D02*
X2834Y54D01*
X2854Y54D02*
X2863Y54D01*
X2994Y54D02*
X3042Y54D01*
X105Y53D02*
X152Y53D01*
X297Y53D02*
X306Y53D01*
X349Y53D02*
X358Y53D01*
X389Y53D02*
X398Y53D01*
X422Y53D02*
X431Y53D01*
X460Y53D02*
X470Y53D01*
X494Y53D02*
X504Y53D01*
X523Y53D02*
X532Y53D01*
X2627Y53D02*
X2636Y53D01*
X2679Y53D02*
X2689Y53D01*
X2719Y53D02*
X2728Y53D01*
X2752Y53D02*
X2762Y53D01*
X2791Y53D02*
X2800Y53D01*
X2825Y53D02*
X2834Y53D01*
X2854Y53D02*
X2863Y53D01*
X2994Y53D02*
X3042Y53D01*
X106Y52D02*
X151Y52D01*
X297Y52D02*
X306Y52D01*
X349Y52D02*
X358Y52D01*
X389Y52D02*
X398Y52D01*
X422Y52D02*
X432Y52D01*
X460Y52D02*
X469Y52D01*
X494Y52D02*
X504Y52D01*
X523Y52D02*
X532Y52D01*
X2627Y52D02*
X2636Y52D01*
X2679Y52D02*
X2689Y52D01*
X2719Y52D02*
X2728Y52D01*
X2753Y52D02*
X2762Y52D01*
X2790Y52D02*
X2800Y52D01*
X2825Y52D02*
X2834Y52D01*
X2854Y52D02*
X2863Y52D01*
X2994Y52D02*
X3041Y52D01*
X297Y51D02*
X306Y51D01*
X349Y51D02*
X358Y51D01*
X389Y51D02*
X398Y51D01*
X422Y51D02*
X432Y51D01*
X459Y51D02*
X469Y51D01*
X495Y51D02*
X504Y51D01*
X523Y51D02*
X532Y51D01*
X2627Y51D02*
X2636Y51D01*
X2679Y51D02*
X2689Y51D01*
X2719Y51D02*
X2728Y51D01*
X2753Y51D02*
X2763Y51D01*
X2790Y51D02*
X2800Y51D01*
X2825Y51D02*
X2835Y51D01*
X2854Y51D02*
X2863Y51D01*
X2995Y51D02*
X3040Y51D01*
X297Y50D02*
X306Y50D01*
X349Y50D02*
X358Y50D01*
X389Y50D02*
X398Y50D01*
X423Y50D02*
X433Y50D01*
X459Y50D02*
X469Y50D01*
X495Y50D02*
X505Y50D01*
X523Y50D02*
X532Y50D01*
X2627Y50D02*
X2636Y50D01*
X2679Y50D02*
X2689Y50D01*
X2719Y50D02*
X2728Y50D01*
X2753Y50D02*
X2763Y50D01*
X2789Y50D02*
X2799Y50D01*
X2825Y50D02*
X2835Y50D01*
X2854Y50D02*
X2863Y50D01*
X2998Y50D02*
X3038Y50D01*
X297Y49D02*
X306Y49D01*
X349Y49D02*
X358Y49D01*
X389Y49D02*
X398Y49D01*
X423Y49D02*
X433Y49D01*
X458Y49D02*
X468Y49D01*
X495Y49D02*
X505Y49D01*
X523Y49D02*
X532Y49D01*
X2627Y49D02*
X2636Y49D01*
X2679Y49D02*
X2689Y49D01*
X2719Y49D02*
X2728Y49D01*
X2754Y49D02*
X2764Y49D01*
X2789Y49D02*
X2799Y49D01*
X2826Y49D02*
X2836Y49D01*
X2854Y49D02*
X2863Y49D01*
X297Y48D02*
X306Y48D01*
X349Y48D02*
X358Y48D01*
X389Y48D02*
X398Y48D01*
X423Y48D02*
X434Y48D01*
X458Y48D02*
X468Y48D01*
X496Y48D02*
X506Y48D01*
X523Y48D02*
X532Y48D01*
X2627Y48D02*
X2636Y48D01*
X2679Y48D02*
X2689Y48D01*
X2719Y48D02*
X2728Y48D01*
X2754Y48D02*
X2764Y48D01*
X2788Y48D02*
X2798Y48D01*
X2826Y48D02*
X2836Y48D01*
X2854Y48D02*
X2863Y48D01*
X297Y47D02*
X306Y47D01*
X349Y47D02*
X358Y47D01*
X389Y47D02*
X398Y47D01*
X424Y47D02*
X434Y47D01*
X457Y47D02*
X467Y47D01*
X496Y47D02*
X506Y47D01*
X523Y47D02*
X532Y47D01*
X2627Y47D02*
X2636Y47D01*
X2679Y47D02*
X2689Y47D01*
X2719Y47D02*
X2728Y47D01*
X2754Y47D02*
X2765Y47D01*
X2788Y47D02*
X2798Y47D01*
X2827Y47D02*
X2837Y47D01*
X2854Y47D02*
X2863Y47D01*
X297Y46D02*
X306Y46D01*
X349Y46D02*
X358Y46D01*
X389Y46D02*
X398Y46D01*
X424Y46D02*
X435Y46D01*
X457Y46D02*
X467Y46D01*
X497Y46D02*
X507Y46D01*
X523Y46D02*
X532Y46D01*
X2627Y46D02*
X2636Y46D01*
X2679Y46D02*
X2689Y46D01*
X2719Y46D02*
X2728Y46D01*
X2755Y46D02*
X2765Y46D01*
X2787Y46D02*
X2797Y46D01*
X2827Y46D02*
X2838Y46D01*
X2854Y46D02*
X2863Y46D01*
X297Y45D02*
X306Y45D01*
X349Y45D02*
X358Y45D01*
X389Y45D02*
X398Y45D01*
X425Y45D02*
X435Y45D01*
X456Y45D02*
X466Y45D01*
X497Y45D02*
X508Y45D01*
X523Y45D02*
X532Y45D01*
X2627Y45D02*
X2636Y45D01*
X2679Y45D02*
X2689Y45D01*
X2719Y45D02*
X2728Y45D01*
X2755Y45D02*
X2766Y45D01*
X2787Y45D02*
X2797Y45D01*
X2828Y45D02*
X2838Y45D01*
X2854Y45D02*
X2863Y45D01*
X297Y44D02*
X306Y44D01*
X349Y44D02*
X358Y44D01*
X389Y44D02*
X398Y44D01*
X425Y44D02*
X436Y44D01*
X456Y44D02*
X466Y44D01*
X498Y44D02*
X508Y44D01*
X523Y44D02*
X532Y44D01*
X2627Y44D02*
X2636Y44D01*
X2679Y44D02*
X2689Y44D01*
X2719Y44D02*
X2728Y44D01*
X2756Y44D02*
X2766Y44D01*
X2786Y44D02*
X2796Y44D01*
X2828Y44D02*
X2839Y44D01*
X2854Y44D02*
X2863Y44D01*
X297Y43D02*
X306Y43D01*
X349Y43D02*
X358Y43D01*
X389Y43D02*
X398Y43D01*
X426Y43D02*
X436Y43D01*
X455Y43D02*
X465Y43D01*
X498Y43D02*
X509Y43D01*
X523Y43D02*
X532Y43D01*
X2627Y43D02*
X2636Y43D01*
X2679Y43D02*
X2689Y43D01*
X2719Y43D02*
X2728Y43D01*
X2756Y43D02*
X2767Y43D01*
X2786Y43D02*
X2796Y43D01*
X2829Y43D02*
X2839Y43D01*
X2854Y43D02*
X2863Y43D01*
X297Y42D02*
X306Y42D01*
X349Y42D02*
X358Y42D01*
X389Y42D02*
X398Y42D01*
X426Y42D02*
X437Y42D01*
X455Y42D02*
X465Y42D01*
X499Y42D02*
X509Y42D01*
X523Y42D02*
X532Y42D01*
X2627Y42D02*
X2636Y42D01*
X2679Y42D02*
X2689Y42D01*
X2719Y42D02*
X2728Y42D01*
X2757Y42D02*
X2767Y42D01*
X2785Y42D02*
X2795Y42D01*
X2829Y42D02*
X2840Y42D01*
X2854Y42D02*
X2863Y42D01*
X297Y41D02*
X306Y41D01*
X349Y41D02*
X358Y41D01*
X389Y41D02*
X398Y41D01*
X427Y41D02*
X437Y41D01*
X454Y41D02*
X464Y41D01*
X499Y41D02*
X510Y41D01*
X523Y41D02*
X532Y41D01*
X2627Y41D02*
X2636Y41D01*
X2679Y41D02*
X2689Y41D01*
X2719Y41D02*
X2728Y41D01*
X2757Y41D02*
X2768Y41D01*
X2785Y41D02*
X2795Y41D01*
X2830Y41D02*
X2840Y41D01*
X2854Y41D02*
X2863Y41D01*
X297Y40D02*
X306Y40D01*
X349Y40D02*
X358Y40D01*
X389Y40D02*
X398Y40D01*
X427Y40D02*
X438Y40D01*
X454Y40D02*
X464Y40D01*
X500Y40D02*
X510Y40D01*
X523Y40D02*
X532Y40D01*
X2627Y40D02*
X2636Y40D01*
X2679Y40D02*
X2689Y40D01*
X2719Y40D02*
X2728Y40D01*
X2758Y40D02*
X2768Y40D01*
X2784Y40D02*
X2794Y40D01*
X2830Y40D02*
X2841Y40D01*
X2854Y40D02*
X2863Y40D01*
X297Y39D02*
X306Y39D01*
X349Y39D02*
X358Y39D01*
X389Y39D02*
X398Y39D01*
X428Y39D02*
X438Y39D01*
X453Y39D02*
X463Y39D01*
X500Y39D02*
X511Y39D01*
X523Y39D02*
X532Y39D01*
X2627Y39D02*
X2636Y39D01*
X2679Y39D02*
X2689Y39D01*
X2719Y39D02*
X2728Y39D01*
X2758Y39D02*
X2769Y39D01*
X2784Y39D02*
X2794Y39D01*
X2831Y39D02*
X2841Y39D01*
X2854Y39D02*
X2863Y39D01*
X297Y38D02*
X306Y38D01*
X349Y38D02*
X358Y38D01*
X389Y38D02*
X398Y38D01*
X428Y38D02*
X439Y38D01*
X453Y38D02*
X463Y38D01*
X501Y38D02*
X511Y38D01*
X523Y38D02*
X532Y38D01*
X2627Y38D02*
X2636Y38D01*
X2679Y38D02*
X2689Y38D01*
X2719Y38D02*
X2728Y38D01*
X2759Y38D02*
X2769Y38D01*
X2783Y38D02*
X2793Y38D01*
X2831Y38D02*
X2842Y38D01*
X2854Y38D02*
X2863Y38D01*
X297Y37D02*
X306Y37D01*
X349Y37D02*
X358Y37D01*
X389Y37D02*
X398Y37D01*
X429Y37D02*
X439Y37D01*
X452Y37D02*
X462Y37D01*
X501Y37D02*
X512Y37D01*
X523Y37D02*
X532Y37D01*
X2627Y37D02*
X2636Y37D01*
X2679Y37D02*
X2689Y37D01*
X2719Y37D02*
X2728Y37D01*
X2759Y37D02*
X2770Y37D01*
X2783Y37D02*
X2793Y37D01*
X2832Y37D02*
X2842Y37D01*
X2854Y37D02*
X2863Y37D01*
X297Y36D02*
X306Y36D01*
X349Y36D02*
X358Y36D01*
X389Y36D02*
X398Y36D01*
X429Y36D02*
X440Y36D01*
X452Y36D02*
X462Y36D01*
X502Y36D02*
X512Y36D01*
X523Y36D02*
X532Y36D01*
X2627Y36D02*
X2636Y36D01*
X2679Y36D02*
X2689Y36D01*
X2719Y36D02*
X2728Y36D01*
X2760Y36D02*
X2770Y36D01*
X2782Y36D02*
X2793Y36D01*
X2832Y36D02*
X2843Y36D01*
X2854Y36D02*
X2863Y36D01*
X297Y35D02*
X306Y35D01*
X349Y35D02*
X358Y35D01*
X389Y35D02*
X398Y35D01*
X430Y35D02*
X440Y35D01*
X451Y35D02*
X462Y35D01*
X502Y35D02*
X513Y35D01*
X523Y35D02*
X532Y35D01*
X2627Y35D02*
X2636Y35D01*
X2679Y35D02*
X2689Y35D01*
X2719Y35D02*
X2728Y35D01*
X2760Y35D02*
X2771Y35D01*
X2782Y35D02*
X2792Y35D01*
X2833Y35D02*
X2843Y35D01*
X2854Y35D02*
X2863Y35D01*
X297Y34D02*
X306Y34D01*
X349Y34D02*
X358Y34D01*
X389Y34D02*
X398Y34D01*
X430Y34D02*
X441Y34D01*
X451Y34D02*
X461Y34D01*
X503Y34D02*
X513Y34D01*
X523Y34D02*
X532Y34D01*
X2627Y34D02*
X2636Y34D01*
X2679Y34D02*
X2689Y34D01*
X2719Y34D02*
X2728Y34D01*
X2761Y34D02*
X2771Y34D01*
X2781Y34D02*
X2792Y34D01*
X2833Y34D02*
X2844Y34D01*
X2854Y34D02*
X2863Y34D01*
X297Y33D02*
X306Y33D01*
X349Y33D02*
X358Y33D01*
X389Y33D02*
X398Y33D01*
X431Y33D02*
X441Y33D01*
X450Y33D02*
X461Y33D01*
X503Y33D02*
X514Y33D01*
X523Y33D02*
X532Y33D01*
X2627Y33D02*
X2636Y33D01*
X2680Y33D02*
X2689Y33D01*
X2719Y33D02*
X2728Y33D01*
X2761Y33D02*
X2772Y33D01*
X2781Y33D02*
X2791Y33D01*
X2834Y33D02*
X2844Y33D01*
X2854Y33D02*
X2863Y33D01*
X297Y32D02*
X306Y32D01*
X349Y32D02*
X358Y32D01*
X388Y32D02*
X398Y32D01*
X431Y32D02*
X442Y32D01*
X450Y32D02*
X460Y32D01*
X504Y32D02*
X514Y32D01*
X523Y32D02*
X532Y32D01*
X2627Y32D02*
X2636Y32D01*
X2680Y32D02*
X2689Y32D01*
X2719Y32D02*
X2728Y32D01*
X2762Y32D02*
X2772Y32D01*
X2780Y32D02*
X2791Y32D01*
X2834Y32D02*
X2845Y32D01*
X2854Y32D02*
X2863Y32D01*
X297Y31D02*
X306Y31D01*
X349Y31D02*
X359Y31D01*
X388Y31D02*
X398Y31D01*
X432Y31D02*
X442Y31D01*
X449Y31D02*
X460Y31D01*
X504Y31D02*
X515Y31D01*
X523Y31D02*
X532Y31D01*
X2627Y31D02*
X2636Y31D01*
X2680Y31D02*
X2690Y31D01*
X2718Y31D02*
X2728Y31D01*
X2762Y31D02*
X2773Y31D01*
X2780Y31D02*
X2790Y31D01*
X2835Y31D02*
X2845Y31D01*
X2854Y31D02*
X2863Y31D01*
X297Y30D02*
X306Y30D01*
X350Y30D02*
X360Y30D01*
X387Y30D02*
X397Y30D01*
X432Y30D02*
X443Y30D01*
X448Y30D02*
X459Y30D01*
X505Y30D02*
X516Y30D01*
X523Y30D02*
X532Y30D01*
X2627Y30D02*
X2636Y30D01*
X2680Y30D02*
X2691Y30D01*
X2717Y30D02*
X2728Y30D01*
X2763Y30D02*
X2773Y30D01*
X2779Y30D02*
X2790Y30D01*
X2835Y30D02*
X2846Y30D01*
X2854Y30D02*
X2863Y30D01*
X297Y29D02*
X306Y29D01*
X350Y29D02*
X362Y29D01*
X385Y29D02*
X397Y29D01*
X433Y29D02*
X444Y29D01*
X447Y29D02*
X459Y29D01*
X505Y29D02*
X517Y29D01*
X523Y29D02*
X533Y29D01*
X2627Y29D02*
X2636Y29D01*
X2680Y29D02*
X2693Y29D01*
X2715Y29D02*
X2727Y29D01*
X2763Y29D02*
X2775Y29D01*
X2778Y29D02*
X2789Y29D01*
X2836Y29D02*
X2848Y29D01*
X2854Y29D02*
X2863Y29D01*
X297Y28D02*
X306Y28D01*
X350Y28D02*
X397Y28D01*
X433Y28D02*
X458Y28D01*
X506Y28D02*
X540Y28D01*
X2627Y28D02*
X2636Y28D01*
X2681Y28D02*
X2727Y28D01*
X2764Y28D02*
X2789Y28D01*
X2836Y28D02*
X2870Y28D01*
X297Y27D02*
X306Y27D01*
X351Y27D02*
X396Y27D01*
X434Y27D02*
X458Y27D01*
X506Y27D02*
X541Y27D01*
X2627Y27D02*
X2636Y27D01*
X2681Y27D02*
X2727Y27D01*
X2764Y27D02*
X2788Y27D01*
X2837Y27D02*
X2872Y27D01*
X297Y26D02*
X306Y26D01*
X351Y26D02*
X396Y26D01*
X434Y26D02*
X457Y26D01*
X507Y26D02*
X542Y26D01*
X2627Y26D02*
X2636Y26D01*
X2682Y26D02*
X2726Y26D01*
X2765Y26D02*
X2787Y26D01*
X2837Y26D02*
X2872Y26D01*
X297Y25D02*
X306Y25D01*
X352Y25D02*
X395Y25D01*
X435Y25D02*
X456Y25D01*
X507Y25D02*
X542Y25D01*
X2627Y25D02*
X2636Y25D01*
X2682Y25D02*
X2725Y25D01*
X2766Y25D02*
X2787Y25D01*
X2838Y25D02*
X2873Y25D01*
X297Y24D02*
X306Y24D01*
X353Y24D02*
X394Y24D01*
X436Y24D02*
X456Y24D01*
X508Y24D02*
X542Y24D01*
X2627Y24D02*
X2636Y24D01*
X2683Y24D02*
X2725Y24D01*
X2766Y24D02*
X2786Y24D01*
X2839Y24D02*
X2873Y24D01*
X297Y23D02*
X306Y23D01*
X354Y23D02*
X393Y23D01*
X437Y23D02*
X455Y23D01*
X509Y23D02*
X542Y23D01*
X2627Y23D02*
X2636Y23D01*
X2684Y23D02*
X2724Y23D01*
X2767Y23D02*
X2785Y23D01*
X2840Y23D02*
X2873Y23D01*
X297Y22D02*
X305Y22D01*
X355Y22D02*
X392Y22D01*
X438Y22D02*
X454Y22D01*
X510Y22D02*
X542Y22D01*
X2627Y22D02*
X2636Y22D01*
X2685Y22D02*
X2722Y22D01*
X2768Y22D02*
X2784Y22D01*
X2841Y22D02*
X2872Y22D01*
X298Y21D02*
X305Y21D01*
X356Y21D02*
X391Y21D01*
X439Y21D02*
X453Y21D01*
X512Y21D02*
X541Y21D01*
X2628Y21D02*
X2635Y21D01*
X2687Y21D02*
X2721Y21D01*
X2769Y21D02*
X2783Y21D01*
X2842Y21D02*
X2872Y21D01*
X298Y20D02*
X304Y20D01*
X358Y20D02*
X389Y20D01*
X441Y20D02*
X451Y20D01*
X514Y20D02*
X541Y20D01*
X2629Y20D02*
X2634Y20D01*
X2689Y20D02*
X2719Y20D01*
X2771Y20D02*
X2781Y20D01*
X2844Y20D02*
X2871Y20D01*
X300Y19D02*
X302Y19D01*
X361Y19D02*
X386Y19D01*
X444Y19D02*
X448Y19D01*
X517Y19D02*
X539Y19D01*
X2631Y19D02*
X2633Y19D01*
X2692Y19D02*
X2716Y19D01*
X2774Y19D02*
X2778Y19D01*
X2847Y19D02*
X2869Y19D01*
D02*
G04 End of Silk0*
M02*