G04 MADE WITH FRITZING*
G04 WWW.FRITZING.ORG*
G04 DOUBLE SIDED*
G04 HOLES PLATED*
G04 CONTOUR ON CENTER OF CONTOUR VECTOR*
%ASAXBY*%
%FSLAX23Y23*%
%MOIN*%
%OFA0B0*%
%SFA1.0B1.0*%
%ADD10C,0.065000*%
%ADD11C,0.078000*%
%ADD12R,0.059055X0.059055*%
%ADD13C,0.024000*%
%LNCOPPER0*%
G90*
G70*
G54D10*
X2630Y159D03*
X2552Y159D03*
X2473Y159D03*
X2394Y159D03*
X2255Y159D03*
X2177Y159D03*
X2098Y159D03*
X2019Y159D03*
X1881Y159D03*
X1802Y159D03*
X1724Y159D03*
X1645Y159D03*
X3006Y159D03*
X2927Y159D03*
X2849Y159D03*
X2770Y159D03*
X381Y159D03*
X302Y159D03*
X223Y159D03*
X145Y159D03*
X1506Y159D03*
X1427Y159D03*
X1349Y159D03*
X1270Y159D03*
X756Y159D03*
X677Y159D03*
X599Y159D03*
X520Y159D03*
X1131Y159D03*
X1052Y159D03*
X973Y159D03*
X894Y159D03*
G54D11*
X3092Y257D03*
X3092Y157D03*
X3092Y57D03*
X58Y257D03*
X58Y157D03*
X58Y57D03*
G54D12*
X2927Y256D03*
X223Y256D03*
X2927Y56D03*
X223Y56D03*
G54D13*
X88Y158D02*
X121Y158D01*
D02*
X404Y159D02*
X496Y159D01*
D02*
X780Y159D02*
X871Y159D01*
D02*
X1154Y159D02*
X1246Y159D01*
D02*
X1530Y159D02*
X1621Y159D01*
D02*
X1905Y159D02*
X1996Y159D01*
D02*
X2279Y159D02*
X2371Y159D01*
D02*
X2654Y159D02*
X2746Y159D01*
D02*
X3030Y159D02*
X3062Y158D01*
D02*
X199Y256D02*
X145Y256D01*
D02*
X145Y256D02*
X145Y183D01*
D02*
X247Y256D02*
X2892Y256D01*
D02*
X3006Y56D02*
X2962Y56D01*
D02*
X3006Y136D02*
X3006Y56D01*
D02*
X2892Y56D02*
X258Y56D01*
G04 End of Copper0*
M02*